<svg width="40" height="40" viewBox="0 0 40 40" fill="none" xmlns="http://www.w3.org/2000/svg">
<circle cx="20" cy="20" r="20" fill="#242424"/>
<path fill-rule="evenodd" clip-rule="evenodd" d="M19.6368 9.36396C20.0176 9.15912 20.4865 9.15912 20.8668 9.36396C22.7485 10.3764 28.411 13.4239 30.2933 14.4363C30.6741 14.6406 30.9086 15.0191 30.9086 15.4288C30.9086 17.4537 30.9086 23.5481 30.9086 25.573C30.9086 25.9827 30.6741 26.3611 30.2933 26.566C28.4116 27.5785 22.7491 30.626 20.8668 31.6384C20.486 31.8432 20.0171 31.8432 19.6368 31.6384C17.7551 30.626 12.0926 27.5785 10.2103 26.566C9.83008 26.3611 9.59558 25.9832 9.59558 25.5735C9.59558 23.5486 9.59558 17.4542 9.59558 15.4294C9.59558 15.0196 9.83008 14.6411 10.2109 14.4363C12.092 13.4239 17.7556 10.3764 19.6368 9.36396Z" fill="#004382"/>
<path fill-rule="evenodd" clip-rule="evenodd" d="M9.76614 26.0951C9.61696 25.9037 9.59558 25.7219 9.59558 25.4773C9.59558 23.4643 9.59558 17.4048 9.59558 15.3912C9.59558 14.9837 9.82952 14.6073 10.2092 14.4041C12.0842 13.3976 17.7276 10.3678 19.6026 9.36079C19.9823 9.15702 20.4966 9.16128 20.8763 9.3651C22.7513 10.3716 28.3757 13.3755 30.2507 14.382C30.4021 14.4638 30.5176 14.5621 30.6208 14.6918L9.76614 26.0951Z" fill="#4F97D2"/>
<path fill-rule="evenodd" clip-rule="evenodd" d="M20.252 12.9739C24.5858 12.9739 28.1042 16.3467 28.1042 20.5012C28.1042 24.6557 24.5858 28.0285 20.252 28.0285C15.9182 28.0285 12.3999 24.6557 12.3999 20.5012C12.3999 16.3467 15.9182 12.9739 20.252 12.9739ZM20.252 16.7376C22.4187 16.7376 24.1781 18.4237 24.1781 20.5012C24.1781 22.5782 22.4187 24.2648 20.252 24.2648C18.0854 24.2648 16.326 22.5782 16.326 20.5012C16.326 18.4237 18.0848 16.7376 20.252 16.7376Z" fill="white"/>
<path fill-rule="evenodd" clip-rule="evenodd" d="M30.6197 14.6969C30.9091 14.9566 30.9035 15.348 30.9035 15.6561C30.9035 17.6965 30.8856 23.5001 30.9086 25.5406C30.9108 25.7535 30.8373 25.9777 30.7274 26.1465L20.0238 20.501L30.6197 14.6969Z" fill="#00589C"/>
<path fill-rule="evenodd" clip-rule="evenodd" d="M24.1781 18.8881H25.2999V22.1141H24.1781V18.8881ZM28.1042 18.8881H29.2259V22.1141H28.1042V18.8881Z" fill="white"/>
<path fill-rule="evenodd" clip-rule="evenodd" d="M23.0564 19.9635H26.4216V21.0388H23.0564V19.9635ZM26.9825 19.9635H30.3476V21.0388H26.9825V19.9635Z" fill="white"/>
</svg>
