<svg width="40" height="40" viewBox="0 0 40 40" fill="none" xmlns="http://www.w3.org/2000/svg">
<circle cx="20" cy="20" r="20" fill="#242424"/>
<path d="M19.8668 8.67925C18.9432 8.68363 18.0616 8.76216 17.2855 8.89953C14.9996 9.30334 14.5848 10.1486 14.5848 11.7076V13.7663H19.9864V14.4525H12.5575C10.9877 14.4525 9.61308 15.396 9.18301 17.1915C8.68689 19.2488 8.66501 20.5329 9.18301 22.6812C9.56692 24.2805 10.4839 25.4198 12.0539 25.4198H13.9113V22.9518C13.9113 21.1688 15.4537 19.5962 17.2857 19.5962H22.6812C24.1831 19.5962 25.3819 18.3594 25.3819 16.8513V11.7078C25.3819 10.2438 24.1468 9.14409 22.6812 8.89975C21.7528 8.74531 20.7901 8.67509 19.8668 8.67925V8.67925ZM16.9456 10.335C17.5034 10.335 17.9593 10.7981 17.9593 11.3677C17.9593 11.9349 17.5036 12.3936 16.9456 12.3936C16.3856 12.3936 15.9321 11.9349 15.9321 11.3677C15.9319 10.7981 16.3856 10.335 16.9456 10.335V10.335Z" fill="url(#paint0_linear_68_426)"/>
<path d="M26.0554 14.4525V16.8513C26.0554 18.7107 24.4787 20.2758 22.681 20.2758H17.2855C15.8077 20.2758 14.5848 21.5409 14.5848 23.0209V28.1648C14.5848 29.6285 15.8575 30.4897 17.2855 30.9095C18.9953 31.412 20.635 31.503 22.681 30.9095C24.0407 30.5155 25.3817 29.7232 25.3817 28.1648V26.106H19.9864V25.4195H28.0828C29.6526 25.4195 30.2379 24.3247 30.7839 22.681C31.3479 20.989 31.3236 19.3617 30.7839 17.1912C30.3959 15.6283 29.655 14.4523 28.0828 14.4523H26.0554V14.4525ZM23.0207 27.4784C23.5809 27.4784 24.0344 27.9371 24.0344 28.5048C24.0344 29.074 23.5807 29.5371 23.0207 29.5371C22.4629 29.5371 22.0072 29.074 22.0072 28.5048C22.0072 27.9371 22.4629 27.4784 23.0207 27.4784V27.4784Z" fill="url(#paint1_linear_68_426)"/>
<path opacity="0.444" d="M27.2864 32.1618C27.2864 32.9369 24.0454 33.5653 20.0477 33.5653C16.0498 33.5653 12.8088 32.9369 12.8088 32.1618C12.8088 31.3866 16.0496 30.7581 20.0477 30.7581C24.0454 30.7581 27.2864 31.3864 27.2864 32.1618Z" fill="url(#paint2_radial_68_426)"/>
<defs>
<linearGradient id="paint0_linear_68_426" x1="8.26117" y1="9.32295" x2="20.7198" y2="19.9476" gradientUnits="userSpaceOnUse">
<stop stop-color="#5A9FD4"/>
<stop offset="1" stop-color="#5A9FD4"/>
</linearGradient>
<linearGradient id="paint1_linear_68_426" x1="25.4072" y1="26.5521" x2="20.9394" y2="20.2866" gradientUnits="userSpaceOnUse">
<stop stop-color="#FFE873"/>
<stop offset="1" stop-color="#FFE873"/>
</linearGradient>
<radialGradient id="paint2_radial_68_426" cx="0" cy="0" r="1" gradientUnits="userSpaceOnUse" gradientTransform="translate(20.0185 32.1216) rotate(-90) scale(1.40401 6.17178)">
<stop stop-color="#B8B8B8" stop-opacity="0.498"/>
<stop offset="1" stop-color="#7F7F7F" stop-opacity="0"/>
</radialGradient>
</defs>
</svg>
