<svg width="141" height="76" viewBox="0 0 141 76" fill="none" xmlns="http://www.w3.org/2000/svg">
<path fill-rule="evenodd" clip-rule="evenodd" d="M14.3113 17.6375C16.8665 18.7558 18.3183 21.1173 18.7227 23.0837C20.075 29.6607 13.8314 34.9448 7.75256 33.3383C5.49282 32.7412 3.68961 19.2297 5.91752 18.23C6.18627 18.1094 6.45067 17.9984 6.71072 17.8968L6.29465 16.7127C6.2388 16.7029 6.18313 16.6878 6.12836 16.6673C5.66149 16.492 5.43267 15.9825 5.61763 15.5301C5.80259 15.0778 6.33182 14.8528 6.79864 15.0281C7.26551 15.2033 7.49434 15.7128 7.30938 16.1652C7.23883 16.3377 7.11828 16.4771 6.97017 16.5738L7.3598 17.6593C9.88694 16.7979 11.9837 16.8341 13.6631 17.3892L13.9142 16.4757C13.8732 16.4381 13.8354 16.3961 13.8014 16.3501C13.5121 15.9578 13.6134 15.4116 14.0276 15.1313C14.4417 14.851 15.0128 14.9419 15.3021 15.3343C15.5915 15.7266 15.4901 16.2728 15.076 16.5531C14.9181 16.66 14.7373 16.7128 14.5581 16.7157L14.3113 17.6375ZM9.43457 24.3256C8.78035 24.811 9.51449 29.9346 10.321 30.0361C13.6137 30.4507 15.1777 27.9317 14.4518 25.6364C13.8468 23.7234 11.1085 23.0834 9.43457 24.3256Z" fill="#FBFCFE"/>
<path fill-rule="evenodd" clip-rule="evenodd" d="M21.2836 18.6866C24.4218 17.9279 26.3604 17.3789 28.9721 18.2231C30.6396 18.7621 29.8096 22.4853 28.9112 22.3366C28.3102 22.2371 27.4394 22.067 27.0172 22.5294C27.5087 25.3179 27.718 26.3452 27.6721 28.9864C28.2924 28.4548 29.3377 28.5528 30.0919 28.9463C31.4495 30.2439 31.0778 32.3804 29.686 33.0314C28.2278 33.7136 22.2847 33.8242 21.4909 33.297C20.5048 32.6422 20.0359 30.2686 20.8357 29.5091C21.3523 29.0185 23.8713 29.0746 23.8713 29.0746C23.8713 29.0746 23.9153 24.8807 23.7972 22.4841C22.742 22.3432 23.6629 22.5809 21.8177 22.7786C20.173 22.9549 20.5344 18.8678 21.2836 18.6866Z" fill="#FBFCFE"/>
<path fill-rule="evenodd" clip-rule="evenodd" d="M77.1605 18.2825C80.2988 17.5237 82.2373 16.9747 84.849 17.819C86.5165 18.3579 86.0681 22.0811 85.1697 21.9324C84.5686 21.8329 83.6979 21.6628 83.2756 22.1252C83.7672 24.9137 83.8135 25.8865 83.7672 28.5276C84.3879 27.996 85.4333 28.094 86.1874 28.4875C87.5446 29.7851 86.9547 31.9763 85.563 32.6272C84.1047 33.3094 78.1617 33.42 77.3678 32.8929C76.3817 32.2381 76.1315 29.8098 76.9312 29.0504C77.4478 28.5598 79.9669 28.6159 79.9669 28.6159C79.9669 28.6159 80.1738 24.4765 80.0557 22.0799C79.0005 21.939 79.9214 22.1767 78.0762 22.3745C76.4315 22.5507 76.4114 18.4636 77.1605 18.2825Z" fill="#FBFCFE"/>
<path fill-rule="evenodd" clip-rule="evenodd" d="M32.8085 20.21C33.4395 19.09 35.8753 18.8009 36.4766 19.5993C37.1956 20.5532 37.4373 25.6058 38.808 25.713C39.7985 25.7905 39.6185 18.8328 40.6077 17.956C41.6394 17.0418 45.3973 17.9183 45.7206 18.728C46.2536 20.0616 45.2672 31.2359 39.586 33.3853C33.1886 33.8392 32.1788 21.3274 32.8085 20.21Z" fill="#FBFCFE"/>
<path fill-rule="evenodd" clip-rule="evenodd" d="M48.0446 18.6208C49.4111 17.3914 57.3488 15.7409 59.1975 17.8817C60.5551 19.4536 59.5832 24.4818 56.6962 24.5824C54.8719 24.5975 53.1772 24.4586 52.7489 24.8207C52.4259 25.0933 52.3032 26.0934 52.6487 26.4536C53.0312 26.8528 56.1274 26.2726 56.8236 26.3969C57.3858 26.4974 57.9433 28.2745 57.2149 28.7922C55.7492 29.8333 53.2119 28.9295 52.704 29.3059C52.1389 29.724 52.3477 30.77 52.784 30.9069C53.261 31.0566 57.1704 29.9627 58.0641 30.2496C59.2551 30.6318 59.4882 32.3456 58.7644 33.2411C58.3155 33.7968 52.2007 34.2808 48.9809 32.6969C44.7953 30.6378 46.7525 19.7832 48.0446 18.6208Z" fill="#FBFCFE"/>
<path fill-rule="evenodd" clip-rule="evenodd" d="M61.4043 32.6327C60.7826 24.2048 63.0503 18.2298 67.4082 18.1749C74.3661 18.0873 75.3618 29.5803 73.9373 32.3987C73.4963 33.2707 70.1477 33.4118 69.2859 32.8137C68.6169 32.3495 68.9291 31.7605 68.7742 30.3191C67.7167 30.1296 66.125 30.0732 66.125 30.0732C65.5291 31.1446 66.1147 32.5858 65.589 32.8899C64.5394 33.4972 62.0134 33.4098 61.4043 32.6327ZM66.2135 28.0676L68.8865 28.3044C68.8856 26.5695 68.5897 25.0346 67.5116 24.9462C66.6297 24.8738 66.4321 26.3643 66.2135 28.0676Z" fill="#FBFCFE"/>
<path fill-rule="evenodd" clip-rule="evenodd" d="M93.7355 30.1932C92.2613 25.6368 90.8396 21.1251 90.3588 14.6184C90.2394 13.0006 92.6335 12.3817 92.7894 14.4332C93.1756 19.5075 93.978 22.5301 95.2382 26.3552C97.8298 19.7069 102.011 11.9515 104.664 10.6127C108.696 8.57772 118.876 10.4827 118.876 10.4827C119.842 8.45155 121.831 5.87974 124.397 6.66546C126.966 7.19341 126.54 9.83016 126.384 11.9045C126.384 11.9045 137.449 15.95 139.781 19.0594C142.442 22.6059 140.248 37.2983 137.913 39.6657C137.666 39.9168 135.125 39.4997 134.871 39.4715C121.207 37.9425 112.212 35.2291 110.677 41.0529C110.421 42.0262 94.0824 36.5482 93.0412 34.8386C92.6817 34.2475 92.9907 32.5034 93.7355 30.1932ZM98.4206 28.0146C99.0198 30.6086 133.252 38.1017 134.794 36.0949C137.253 32.8955 137.884 22.7906 136.81 20.8461C135.481 18.4384 108.951 11.0578 105.715 13.8431C102.725 16.4173 97.9014 25.768 98.4206 28.0146Z" fill="#FBFCFE"/>
<path d="M104.563 28.7687C106.5 28.7687 108.071 27.2199 108.071 25.3094C108.071 23.3988 106.5 21.85 104.563 21.85C102.625 21.85 101.055 23.3988 101.055 25.3094C101.055 27.2199 102.625 28.7687 104.563 28.7687Z" fill="#FBFCFE"/>
<path d="M108.886 20.7409C109.668 20.7409 110.301 20.1004 110.301 19.3102C110.301 18.5201 109.668 17.8796 108.886 17.8796C108.105 17.8796 107.471 18.5201 107.471 19.3102C107.471 20.1004 108.105 20.7409 108.886 20.7409Z" fill="#FBFCFE"/>
<path d="M128.354 25.3093C129.136 25.3093 129.77 24.6687 129.77 23.8786C129.77 23.0885 129.136 22.4479 128.354 22.4479C127.573 22.4479 126.939 23.0885 126.939 23.8786C126.939 24.6687 127.573 25.3093 128.354 25.3093Z" fill="#FBFCFE"/>
<path fill-rule="evenodd" clip-rule="evenodd" d="M113.923 23.2181C113.923 23.2181 116.449 25.292 118.005 25.6581C119.56 26.0241 123.027 25.3094 123.027 25.3094C123.776 25.2417 123.578 24.0416 122.856 24.1542C122.856 24.1542 119.714 24.7805 118.359 24.5421C117.016 24.3054 114.891 22.448 114.891 22.448C114.289 22.0821 113.79 22.7865 113.923 23.2181Z" fill="#FBFCFE"/>
<path d="M131.235 34.3831C133.172 34.3831 134.743 32.8343 134.743 30.9237C134.743 29.0132 133.172 27.4644 131.235 27.4644C129.297 27.4644 127.727 29.0132 127.727 30.9237C127.727 32.8343 129.297 34.3831 131.235 34.3831Z" fill="#FBFCFE"/>
<path fill-rule="evenodd" clip-rule="evenodd" d="M125.743 0C127.524 0 128.97 1.39898 128.97 3.12208C128.97 4.84525 127.524 6.24423 125.743 6.24423C123.962 6.24423 122.516 4.84525 122.516 3.12208C122.516 1.39898 123.962 0 125.743 0ZM125.743 1.60013C124.842 1.60013 124.11 2.26342 124.11 3.08037C124.11 3.89732 124.842 4.56062 125.743 4.56062C126.644 4.56062 127.376 3.89732 127.376 3.08037C127.376 2.26342 126.644 1.60013 125.743 1.60013Z" fill="#FBFCFE"/>
<path fill-rule="evenodd" clip-rule="evenodd" d="M0.042046 45.0377C0.149296 43.7047 4.35967 43.8733 5.04581 45.0377C6.21395 47.0197 4.25457 54.2022 8.2061 55.6833C12.1745 57.171 25.706 55.9447 28.8561 53.9627C31.516 52.2889 29.775 46.0343 26.7673 45.0377C23.3923 43.9191 11.3007 47.1421 7.65834 46.6851C5.55795 46.4213 3.74851 41.3329 5.60612 40.3574C9.02305 38.5633 23.962 33.8228 29.107 36.4863C34.2523 39.15 37.0157 52.8482 35.7934 56.9956C34.5716 61.1431 21.7748 61.3705 21.7748 61.3705L22.016 62.6707C22.016 62.6707 32.2257 61.0574 33.9096 61.5122C35.4044 61.9159 36.064 65.0501 34.8595 65.9893C33.5098 67.0424 22.9607 67.6026 22.9607 67.6026C22.9607 67.6026 23.9648 72.7175 23.4517 73.9667C22.8805 75.3571 19.2524 75.5715 18.6272 74.504C17.863 73.1993 17.9028 67.0232 17.7546 67.9126L13.1718 68.3351C13.1718 68.3351 13.1486 71.6855 11.69 73.2172C10.3811 74.5915 7.96375 73.881 7.7831 72.7274C7.53255 71.1271 8.58679 68.7867 8.58679 68.7867C8.58679 68.7867 4.12705 69.9165 3.44432 69.1128C2.76164 68.3091 2.28713 65.3304 3.9926 64.5222C6.35701 63.4014 17.6635 63.0443 17.6635 63.0443L17.6544 61.7652C17.6544 61.7652 6.05413 63.0022 3.25491 60.2142C0.45569 57.4262 -0.185094 47.8597 0.042046 45.0377Z" fill="#FBFCFE"/>
<path fill-rule="evenodd" clip-rule="evenodd" d="M30.333 69.0738C30.7534 68.0618 33.2261 67.1122 34.1704 67.7774C35.1151 68.4426 36.4202 72.0532 35.9998 73.0652C35.579 74.0771 32.5918 74.5141 31.6471 73.8488C30.7029 73.1836 29.9127 70.0858 30.333 69.0738Z" fill="#FBFCFE"/>
<path fill-rule="evenodd" clip-rule="evenodd" d="M38.132 56.8648C36.1144 57.9937 37.1972 63.0606 39.4976 63.4526C43.0554 64.0585 56.2264 62.3214 59.4795 60.5018C61.8768 59.1607 61.7486 52.9999 59.0151 52.5343C55.4573 51.9279 41.3851 55.0451 38.132 56.8648Z" fill="#FBFCFE"/>
<path fill-rule="evenodd" clip-rule="evenodd" d="M80.2318 54.5989C80.949 54.0602 84.489 53.67 84.8232 53.9598C85.5667 54.603 85.8087 56.8496 85.8087 56.8496C85.8087 56.8496 95.3881 55.9965 97.7012 58.0162C100.014 60.0363 99.6337 68.2895 98.4465 70.8604C97.2593 73.4313 89.6029 73.9646 88.9073 71.5816C88.4827 70.1262 87.6058 67.5167 88.4944 66.5986C89.3829 65.68 91.8654 67.7176 92.6392 66.6098C93.4135 65.5024 92.8953 61.4971 91.4727 60.9629C90.0505 60.4288 86.3091 61.3079 86.3091 61.3079C86.3091 61.3079 87.3947 72.8473 86.3456 74.2997C85.297 75.7524 80.6386 76.1458 80.0136 74.1655C79.1991 71.5834 80.6156 62.2816 79.9486 62.1022C77.6748 62.483 75.366 63.1804 74.2771 63.5756C74.2771 63.5756 76.6365 68.6147 75.8772 69.7741C75.1178 70.9331 72.5628 71.3973 71.6326 70.8604C70.7029 70.3235 70.1102 66.486 69.6556 66.2286C69.2011 65.9711 67.8678 69.2704 66.9269 69.4498C65.9864 69.6292 63.788 68.459 64.0104 67.3045C64.4654 64.9453 70.4051 54.4316 70.4051 54.4316C70.4051 54.4316 66.7392 56.1822 64.4359 55.4349C61.3884 54.4469 61.6838 51.1825 63.1574 50.0272C65.1667 48.452 73.5931 46.9158 73.5931 46.9158C74.1226 46.9772 76.5368 40.4495 78.3054 38.9166C80.2322 37.2472 83.167 37.9795 83.74 39.3076C84.313 40.6356 81.4171 45.1011 81.4171 45.1011C81.4171 45.1011 91.5307 42.0453 94.1981 42.2512C95.9073 42.3826 97.7522 46.883 96.6114 48.1093C94.9415 49.9034 80.3839 52.9219 80.3839 52.9219L76.3125 53.7741L74.2944 58.4813L79.9551 57.3573C80.141 57.1851 79.685 55.0098 80.2318 54.5989Z" fill="#FBFCFE"/>
<path fill-rule="evenodd" clip-rule="evenodd" d="M98.0508 45.3184C97.2409 45.8432 96.4825 51.7753 96.615 56.4645C96.6197 56.6274 96.6005 55.5702 96.6005 55.5702C99.9861 56.3425 101.207 60.4676 101.047 63.5179C101.047 63.5179 105.938 66.5607 109.246 63.1425C111.871 60.4303 111.746 49.1106 110.284 45.9795C108.822 42.8484 103.484 44.0208 101.675 44.7479C100.796 45.1009 100.946 47.8099 101.674 48.2217C102.881 48.9043 105.861 46.9739 106.879 48.8231C107.897 50.6728 107.986 54.6992 106.721 56.4381C105.455 58.177 102.179 57.3055 101.036 55.4397C99.8915 53.5738 101.27 48.2042 100.884 46.3406C100.732 45.6028 98.7015 44.8972 98.0508 45.3184Z" fill="#FBFCFE"/>
<path fill-rule="evenodd" clip-rule="evenodd" d="M122.125 62.6596C121.373 65.5193 117.872 71.3788 116.961 72.5023C115.882 73.8326 111.329 71.873 110.81 70.1027C110.435 68.8218 113.532 64.7542 115.682 62.0994C114.923 61.8303 114.323 61.4517 114.001 60.9265C112.321 58.1878 112.975 49.9302 113.762 47.5763C114.167 46.3622 119.343 47.597 119.669 48.8331C120.155 50.6783 118.788 54.9666 119.833 56.1762C120.877 57.3854 125.936 56.0897 125.936 56.0897L126.598 47.5512C126.598 47.5512 115.153 46.9493 113.472 45.6935C111.79 44.4376 112.76 40.2112 114.845 39.695C118.027 38.9065 136.329 41.3276 136.938 41.5236C139.026 42.1946 137.679 45.5544 136.113 46.6824C135.26 47.2974 131.867 47.3292 131.867 47.3292L131.342 55.8694C131.342 55.8694 136.253 54.9352 137.477 55.8694C138.701 56.8037 139.691 60.4946 138.684 61.4746C137.677 62.4542 131.59 62.5457 131.59 62.5457C131.59 62.5457 132.193 73.1625 131.156 74.6305C130.119 76.0985 125.405 76.443 124.192 75.1786C122.98 73.9143 124.903 62.4214 124.903 62.4214C124.903 62.4214 123.721 62.5806 122.125 62.6596Z" fill="#FBFCFE"/>
</svg>
