<svg width="1094" height="891" viewBox="0 0 1094 891" fill="none" xmlns="http://www.w3.org/2000/svg">
<mask id="mask0_208_429" style="mask-type:alpha" maskUnits="userSpaceOnUse" x="6" y="2" width="1082" height="883">
<rect x="6" y="2" width="1082" height="883" rx="16" fill="#FBFCFE" fill-opacity="0.74"/>
</mask>
<g mask="url(#mask0_208_429)">
<mask id="mask1_208_429" style="mask-type:luminance" maskUnits="userSpaceOnUse" x="-52" y="0" width="1151" height="893">
<path d="M1097.8 0.5V891.968H-51.5V0.5H1097.8Z" fill="white" stroke="white"/>
</mask>
<g mask="url(#mask1_208_429)">
<path d="M-780.715 1070.51C-767.583 985.173 -693.388 934.302 -621.782 924.373C-550.176 914.333 -477.228 933.856 -404.855 933.856C-210.933 933.744 -28.1315 778.455 35.3268 559.912C55.6487 489.853 64.5636 415.221 84.4063 344.939C104.249 274.657 137.895 206.272 192.534 172.804C271.138 124.722 369.585 161.76 448.86 215.531C528.135 269.302 602.425 340.476 690.327 365.131C805.836 397.483 925.755 341.815 1014.14 252.011C1102.42 162.206 1164.83 41.4997 1225.79 -77.1985" stroke="#DCF0FF" stroke-miterlimit="10"/>
<path d="M-785.029 1062.26C-770.65 977.363 -696.647 926.604 -624.945 916.341C-593.983 911.879 -562.637 912.994 -531.291 916.006C-490.168 919.911 -448.949 926.827 -408.018 927.831C-324.525 929.951 -243.141 905.074 -171.631 856.769C-116.417 819.508 -67.2412 770.311 -28.0351 711.297C0.0513607 669.351 22.3863 622.05 38.0112 570.733C45.0089 547.752 50.7604 524.213 56.0326 500.451C66.7687 452.146 75.5877 403.061 89.4872 356.318C105.304 303.327 129.173 252.01 164.64 217.093C175.664 206.16 187.646 196.789 200.779 189.426C255.897 158.636 319.643 169.234 380.609 195.45C406.97 206.829 432.852 220.997 456.912 236.281C483.849 253.349 510.21 271.756 536.475 289.271C588.047 323.854 638.947 355.648 694.066 367.25C729.917 374.725 765.289 372.828 800.277 363.68C871.404 345.162 941.285 295.741 999.566 232.711C1015.57 215.419 1030.82 197.235 1045.58 178.27C1111.15 94.0437 1165.98 -3.3468 1220.04 -95.1594" stroke="#DCF0FF" stroke-miterlimit="10"/>
<path d="M-789.342 1053.89C-773.622 969.443 -699.906 918.684 -628.109 908.086C-597.05 903.512 -565.705 904.627 -534.263 907.751C-493.14 911.878 -451.921 919.464 -411.085 921.584C-327.784 925.935 -246.496 905.074 -174.315 858.777C-118.526 823.078 -68.5834 776.224 -27.8436 719.44C1.29733 678.833 24.4951 632.313 40.791 581.331C48.0762 558.573 54.0194 535.034 59.5792 511.272C70.7946 463.079 80.0929 413.882 94.5675 367.585C111.055 314.929 135.787 264.84 172.405 231.595C183.716 221.332 195.794 212.519 209.022 205.825C264.429 177.824 327.312 190.988 388.182 217.316C414.639 228.695 440.712 242.416 465.06 256.696C492.284 272.649 518.933 289.383 545.102 304.778C596.482 335.345 646.041 362.23 697.996 368.924C731.642 373.274 763.755 368.254 796.059 356.652C861.53 332.89 927.96 279.008 985.283 213.077C1001 195.004 1016.25 176.039 1031.1 156.628C1097.34 69.8356 1156.29 -26.6625 1214.48 -113.566" stroke="#DCF0FF" stroke-miterlimit="10"/>
<path d="M-793.656 1045.53C-776.593 961.522 -703.166 910.763 -631.272 899.942C-600.214 895.256 -568.676 896.26 -537.235 899.607C-496.016 904.07 -454.988 912.325 -414.153 915.448C-330.948 922.03 -249.947 905.185 -176.999 860.896C-120.635 826.759 -69.8296 782.248 -27.652 727.696C2.63926 688.427 26.6038 642.688 43.5708 591.929C51.1436 569.283 57.3744 545.967 63.2217 522.093C74.9164 474.012 84.694 424.703 99.7438 378.741C116.902 326.42 142.401 277.557 180.265 245.986C191.864 236.392 204.038 228.137 217.266 222.224C272.864 197.012 334.98 212.854 395.754 239.181C422.307 250.672 448.476 263.836 473.112 277.111C500.623 291.948 527.464 307.009 553.633 320.396C604.821 346.724 653.134 368.924 701.83 370.709C733.368 371.824 762.221 363.904 791.649 349.736C851.465 320.954 914.444 262.274 970.713 193.554C986.146 174.589 1001.29 155.066 1016.25 135.097C1083.06 45.7389 1146.13 -49.8666 1208.63 -131.751" stroke="#DCF0FF" stroke-miterlimit="10"/>
<path d="M-797.97 1037.16C-779.565 953.713 -706.425 902.842 -634.34 891.798C-603.186 887.001 -571.648 887.893 -540.111 891.575C-498.892 896.26 -457.864 905.185 -417.125 909.424C-334.111 918.126 -253.207 905.408 -179.683 863.239C-122.648 830.664 -70.98 788.607 -27.5562 736.174C3.98122 698.244 28.6168 653.286 46.1589 602.862C54.0192 580.438 60.5376 557.123 66.5767 533.249C78.7507 485.168 89.0076 435.97 104.728 390.231C122.558 338.357 148.823 290.498 187.933 260.824C199.82 251.787 212.09 244.313 225.414 238.958C281.299 216.535 342.457 235.054 403.327 261.381C429.88 272.983 456.337 285.589 481.164 297.972C508.963 311.806 536.091 325.081 562.069 336.46C613.065 358.772 660.132 375.952 705.473 372.94C734.901 370.932 760.495 359.887 787.144 343.154C841.4 309.24 900.736 245.986 956.142 174.477C971.384 154.731 986.433 134.428 1001.48 113.901C1068.87 22.0884 1136.07 -72.8478 1202.79 -149.6" stroke="#DCF0FF" stroke-miterlimit="10"/>
<path d="M-802.283 1028.79C-782.536 945.792 -709.684 894.922 -637.503 883.654C-606.349 878.746 -574.715 879.638 -543.082 883.431C-501.863 888.34 -460.836 897.934 -420.192 903.289C-337.37 914.221 -256.658 905.408 -182.367 865.359C-124.756 834.346 -72.2261 794.742 -27.3644 744.541C5.32329 707.95 30.7258 663.661 48.9389 613.571C57.0868 591.26 63.8927 568.056 70.1235 544.294C82.7768 496.324 93.5129 447.015 109.809 401.722C128.31 350.182 155.342 303.551 195.698 275.549C207.776 267.182 220.238 260.266 233.562 255.58C289.639 236.058 350.03 257.031 410.804 283.582C437.453 295.184 464.101 307.344 489.216 318.722C517.303 331.44 544.622 343.042 570.6 352.302C621.405 370.486 667.417 382.869 709.307 374.948C736.722 369.816 758.866 355.648 782.83 336.46C831.526 297.303 887.316 229.587 941.763 155.178C956.717 134.651 971.767 113.678 986.913 92.5935C1054.88 -1.78491 1126.29 -95.8287 1197.23 -167.561" stroke="#DCF0FF" stroke-miterlimit="10"/>
<path d="M-806.693 1020.54C-785.604 937.983 -713.039 887.224 -640.762 875.622C-609.512 870.602 -577.783 871.383 -546.15 875.399C-504.835 880.642 -463.999 890.906 -423.355 897.264C-340.629 910.317 -260.108 905.631 -185.147 867.59C-126.961 838.25 -73.472 800.99 -27.2683 752.908C6.66554 717.655 32.739 674.148 51.6231 624.393C59.9628 602.192 67.0563 579.1 73.6705 555.338C86.8031 507.479 98.1144 458.059 114.89 413.101C134.061 362.007 161.86 316.38 203.463 290.163C215.828 282.354 228.386 276.107 241.806 272.091C298.075 255.357 357.603 279.008 418.377 305.559C445.122 317.272 471.962 328.874 497.269 339.249C525.643 350.851 553.154 360.78 579.132 368.031C629.745 382.199 674.798 389.45 713.142 376.844C738.64 368.477 757.332 351.297 778.421 329.544C821.461 285.255 873.8 212.853 927.289 135.655C941.955 114.236 957.005 92.5935 972.247 71.0627C1040.88 -25.8816 1116.32 -119.033 1191.47 -185.856" stroke="#DCF0FF" stroke-miterlimit="10"/>
<path d="M-811.006 1012.17C-788.575 930.174 -716.298 879.304 -643.925 867.367C-612.675 862.235 -580.85 863.016 -549.121 867.255C-507.806 872.722 -466.971 883.655 -426.423 891.129C-343.889 906.412 -263.463 905.743 -187.831 869.71C-129.07 841.932 -74.6225 807.125 -27.0767 761.163C8.00742 727.25 34.8478 684.523 54.4029 635.102C63.0301 613.125 70.4112 590.033 77.2171 566.271C90.829 518.412 102.62 468.992 119.97 424.368C139.813 373.609 168.378 329.098 211.227 304.778C223.785 297.638 236.534 291.949 249.954 288.602C306.51 274.657 365.176 300.985 425.854 327.536C452.598 339.249 479.726 350.405 505.225 359.776C533.79 370.263 561.685 378.518 587.567 383.65C637.988 393.69 682.083 395.81 716.784 378.63C740.461 366.916 755.511 346.835 773.916 322.627C811.396 273.095 860.188 196.231 912.719 116.132C927.193 93.9323 942.051 71.6206 957.484 49.532C1026.69 -49.9781 1106.35 -142.348 1185.72 -204.04" stroke="#DCF0FF" stroke-miterlimit="10"/>
<path d="M-815.32 1003.8C-791.547 922.254 -719.558 871.383 -646.993 859.223C-615.647 853.98 -583.726 854.649 -551.997 859.111C-510.682 864.913 -469.847 876.515 -429.49 884.993C-347.148 902.508 -266.914 905.854 -190.515 871.941C-131.179 845.724 -75.8687 813.373 -26.8851 769.53C9.44521 736.955 36.9566 695.009 57.1827 645.812C66.0975 623.946 73.7662 600.965 80.8597 577.203C94.9509 529.456 107.221 479.924 125.146 435.636C145.66 385.211 174.897 341.815 219.087 319.28C231.932 312.698 244.777 307.678 258.293 305.112C315.042 293.957 372.844 322.85 433.523 349.513C460.363 361.338 487.683 371.936 513.468 380.414C542.322 389.897 570.408 396.367 596.29 399.491C646.52 405.515 689.848 402.28 720.81 380.637C742.666 365.465 754.169 342.596 769.698 315.934C801.523 261.158 846.864 179.832 898.34 96.8328C912.527 73.8517 927.385 50.7591 942.914 28.2243C1012.7 -73.8516 1096.48 -165.33 1180.07 -222.001" stroke="#DCF0FF" stroke-miterlimit="10"/>
<path d="M-819.634 995.436C-794.519 914.333 -722.817 863.462 -650.156 851.079C-618.81 845.724 -586.794 846.282 -554.969 850.968C-513.654 856.992 -472.914 869.263 -432.558 878.969C-350.311 898.603 -270.269 906.077 -193.199 874.172C-133.288 849.517 -77.0189 819.62 -26.6933 778.008C10.8832 746.884 39.0656 705.607 59.9627 656.744C69.1651 635.102 77.0255 612.121 84.4066 588.359C99.0729 540.724 111.726 491.08 130.227 447.238C151.412 397.259 181.415 354.867 226.852 334.229C239.889 328.316 252.926 323.966 266.442 321.957C323.381 313.591 380.417 345.162 441 371.824C467.936 383.649 495.351 393.801 521.425 401.276C550.566 409.642 578.844 414.439 604.63 415.444C654.668 417.34 697.037 408.527 724.453 382.757C744.391 364.015 752.348 338.468 765.193 309.24C791.458 249.221 833.156 163.321 883.769 77.533C897.765 53.771 912.527 30.0091 928.152 6.80495C998.512 -97.8369 1086.51 -188.422 1174.32 -240.185" stroke="#DCF0FF" stroke-miterlimit="10"/>
<path d="M-823.947 987.069C-797.586 906.412 -726.076 855.653 -653.319 842.935C-621.878 837.469 -589.861 838.027 -558.036 842.824C-516.625 849.183 -475.981 862.012 -435.721 872.833C-353.666 894.699 -273.816 906.077 -195.979 876.291C-135.397 853.199 -78.1693 825.867 -26.5975 786.264C12.2251 756.478 41.0785 715.982 62.6466 667.342C72.1366 645.812 80.2845 622.942 87.8573 599.18C103.003 551.545 116.136 501.901 135.211 458.393C157.067 408.75 187.742 367.362 234.521 348.62C247.845 343.265 260.978 339.584 274.589 338.245C331.817 332.779 387.894 366.804 448.476 393.69C475.413 405.626 503.116 415.22 529.381 421.691C558.809 428.942 587.279 432.177 613.065 431.062C662.816 428.942 704.322 414.216 728.095 384.542C746.212 362.007 750.622 334.006 760.591 302.323C781.201 237.062 819.448 146.699 869.103 58.0102C882.811 33.3558 897.477 9.03608 913.294 -14.7259C984.325 -121.934 1076.35 -211.627 1168.47 -258.369" stroke="#DCF0FF" stroke-miterlimit="10"/>
<path d="M-828.261 978.814C-800.558 898.715 -729.335 847.844 -656.483 834.903C-625.041 829.325 -592.833 829.772 -561.008 834.903C-519.597 841.485 -478.953 855.095 -438.788 866.921C-356.829 891.017 -277.171 906.412 -198.663 878.634C-137.505 857.215 -79.3195 832.226 -26.4057 794.742C13.5673 766.407 43.1875 726.58 65.4267 678.275C75.2042 656.968 83.6397 634.098 91.5001 610.336C107.125 562.812 120.737 513.169 140.484 469.884C163.01 420.687 194.356 380.303 242.573 363.346C256.089 358.549 269.413 355.537 283.121 354.867C340.54 352.19 395.85 388.893 456.337 415.778C483.369 427.827 511.264 436.863 537.817 442.441C567.533 448.576 596.29 450.138 621.98 447.015C671.539 440.879 711.895 420.241 732.313 386.773C748.321 360.445 749.376 329.99 756.661 295.741C771.615 225.237 806.412 130.412 855.108 38.9339C868.528 13.4986 883.194 -11.602 899.011 -35.8102C970.617 -145.472 1066.76 -234.496 1163.1 -276.107" stroke="#DCF0FF" stroke-miterlimit="10"/>
<path d="M-832.574 970.447C-803.529 890.794 -732.594 839.924 -659.55 826.648C-628.013 820.959 -595.804 821.293 -563.884 826.648C-522.473 833.453 -481.925 847.733 -441.76 860.673C-359.993 886.89 -280.43 906.412 -201.347 880.754C-139.614 860.896 -80.4698 838.473 -26.3098 802.998C14.9093 776.001 45.2005 736.955 68.1107 688.985C78.1758 667.789 86.8989 645.031 94.951 621.269C111.055 573.857 125.146 524.102 145.468 481.263C168.57 432.401 200.683 393.02 250.241 378.072C264.045 373.944 277.465 371.49 291.173 371.49C348.784 371.601 403.231 410.981 463.718 437.867C490.846 449.915 518.933 458.505 545.677 463.079C575.681 468.211 604.63 467.988 630.32 462.744C679.687 452.593 718.797 425.93 735.956 388.67C749.855 358.437 747.555 325.639 752.06 288.936C761.358 213.188 792.704 113.79 840.441 19.5228C853.67 -6.69338 868.24 -32.4634 884.153 -57.2294C956.334 -169.457 1056.7 -257.588 1157.25 -294.179" stroke="#DCF0FF" stroke-miterlimit="10"/>
<path d="M-836.984 962.08C-806.597 882.873 -736.045 832.003 -662.81 818.504C-631.272 812.703 -598.872 813.038 -566.951 818.504C-525.444 825.644 -484.992 840.481 -444.923 854.537C-363.348 882.985 -283.977 906.524 -204.127 882.873C-141.819 864.578 -81.7162 844.609 -26.2142 811.364C16.2511 785.817 47.2133 747.441 70.7945 699.694C81.1472 678.61 90.062 655.963 98.4976 632.202C115.081 584.789 129.651 535.034 150.549 492.53C174.321 444.114 207.105 405.626 258.006 392.574C272.001 389.004 285.613 387.331 299.417 388C357.315 390.901 410.9 432.847 471.387 459.844C498.514 472.004 526.889 480.036 553.825 483.606C584.116 487.622 613.257 485.837 638.947 478.474C688.026 464.306 725.795 431.731 739.886 390.566C751.485 356.541 746.021 321.288 747.842 282.02C751.485 201.028 779.284 97.1672 826.062 -0.000182495C839.003 -27.1089 853.574 -53.5482 869.582 -78.7604C942.435 -193.554 1046.82 -280.793 1151.6 -312.475" stroke="#DCF0FF" stroke-miterlimit="10"/>
<path d="M-841.298 953.713C-809.568 875.065 -739.304 824.082 -665.973 810.361C-634.339 804.448 -601.939 804.671 -569.923 810.472C-528.416 817.835 -488.06 833.453 -448.087 848.514C-366.607 879.192 -287.428 906.747 -206.907 885.105C-144.024 868.371 -82.8663 850.968 -26.1181 819.732C17.5933 795.635 49.2265 757.928 73.4786 710.516C84.1189 689.654 93.3213 667.008 101.949 643.358C119.011 596.057 134.061 546.19 155.533 504.021C179.977 455.939 213.432 418.456 265.675 407.3C279.958 404.288 293.665 403.284 307.469 404.623C365.559 410.312 418.281 454.935 478.768 481.933C505.992 494.092 534.461 501.678 561.781 504.244C592.264 507.145 621.693 503.686 647.287 494.204C696.175 476.132 732.409 437.532 743.433 392.463C752.731 354.644 744.2 316.938 743.145 275.215C741.132 189.092 765.48 80.6568 811.3 -19.4111C824.05 -47.3007 838.428 -74.4094 854.628 -100.291C928.056 -217.65 1036.66 -304.108 1145.65 -330.659" stroke="#DCF0FF" stroke-miterlimit="10"/>
<path d="M-845.611 945.346C-812.54 867.144 -742.563 816.273 -669.136 802.217C-637.503 796.193 -604.911 796.416 -572.894 802.328C-531.387 810.026 -491.031 826.202 -451.154 842.378C-369.866 875.176 -290.879 906.747 -209.591 887.336C-146.133 872.276 -84.0165 857.327 -25.9263 828.098C19.1271 805.452 51.4314 768.415 76.2587 721.225C87.1866 700.475 96.6765 678.052 105.496 654.29C123.038 607.101 138.662 557.123 160.614 515.4C185.729 467.653 219.95 431.062 273.439 422.026C287.914 419.571 301.909 419.237 315.713 421.245C374.091 429.723 425.95 477.024 486.341 504.133C513.66 516.404 542.322 523.432 569.833 525.106C600.604 526.891 630.32 521.87 655.818 510.268C704.514 488.18 739.119 443.779 747.267 394.694C754.169 353.082 742.57 312.921 738.832 268.744C731.067 177.378 752.06 64.3692 796.922 -38.4877C809.383 -67.1582 823.762 -95.0478 840.058 -121.376C914.061 -241.301 1026.79 -326.866 1140 -348.397" stroke="#DCF0FF" stroke-miterlimit="10"/>
<path d="M-849.925 937.091C-815.512 859.335 -745.823 808.464 -672.203 794.185C-640.474 788.049 -607.882 788.161 -575.77 794.296C-534.167 802.217 -493.907 819.174 -454.126 836.354C-373.03 871.383 -294.138 906.97 -212.179 889.567C-148.05 876.069 -85.071 863.686 -25.6389 836.465C20.6607 815.269 53.636 778.789 79.1343 732.047C90.3497 711.52 100.127 689.097 109.234 665.335C127.255 618.145 143.359 568.167 165.886 526.779C191.672 479.478 226.564 443.668 281.395 436.64C296.062 434.743 310.249 435.078 324.052 437.755C382.622 449.134 433.618 498.889 494.009 526.11C521.425 538.381 550.278 544.963 577.981 545.632C609.039 546.413 638.947 539.608 664.445 525.887C712.95 499.782 745.925 449.692 751.197 396.479C755.607 351.298 740.94 308.459 734.518 261.716C720.906 165.106 738.64 47.6355 782.543 -58.1219C794.717 -87.5733 809.096 -116.132 825.487 -143.018C899.969 -265.509 1016.82 -350.294 1134.34 -366.804" stroke="#DCF0FF" stroke-miterlimit="10"/>
<path d="M-854.239 928.724C-818.483 851.414 -749.082 800.543 -675.367 785.929C-643.638 779.682 -610.95 779.682 -578.742 786.041C-537.139 794.296 -496.974 811.811 -457.193 830.106C-376.193 867.367 -297.589 906.97 -214.863 891.575C-150.159 879.638 -86.1256 869.933 -25.4473 844.609C22.0985 824.863 55.7447 789.053 81.9141 742.645C93.3212 722.229 103.386 699.918 112.781 676.156C131.377 629.078 147.865 579.1 170.967 537.935C197.423 490.969 232.987 456.163 289.16 451.031C304.114 449.692 318.397 450.808 332.296 454.043C391.057 468.211 441.287 520.643 501.582 547.864C528.997 560.247 558.138 566.271 586.033 565.936C617.379 565.601 647.478 557.234 672.977 541.393C721.289 511.272 752.635 455.493 754.936 398.152C756.853 349.29 739.215 303.885 730.108 254.688C710.937 152.947 725.028 30.9018 768.068 -77.7562C780.05 -108.1 794.237 -137.328 810.821 -164.66C885.878 -289.494 1006.85 -373.386 1128.59 -384.877" stroke="#DCF0FF" stroke-miterlimit="10"/>
<path d="M-858.552 920.357C-821.455 843.605 -752.341 792.622 -678.53 777.785C-646.705 771.426 -613.922 771.426 -581.713 778.008C-540.111 786.487 -499.946 804.671 -460.261 824.082C-379.452 863.462 -300.944 907.193 -217.547 893.806C-152.268 883.431 -87.2757 876.291 -25.2554 853.087C23.5365 834.792 57.8538 799.651 84.6941 753.466C96.3889 733.273 106.742 710.962 116.423 687.2C135.499 640.234 152.466 590.144 176.239 549.425C203.367 502.905 239.601 468.768 297.116 465.868C312.262 465.087 326.736 466.872 340.636 470.888C399.685 487.845 448.956 542.955 509.251 570.175C536.762 582.67 566.095 588.136 594.277 586.797C625.91 585.347 656.298 575.418 681.7 557.457C729.821 523.432 759.537 461.963 758.962 400.383C758.482 347.951 737.873 299.869 725.891 248.106C701.063 141.121 711.704 14.5026 753.69 -96.8328C765.384 -127.958 779.571 -157.855 796.251 -185.856C872.075 -313.368 997.17 -396.479 1123.13 -402.949" stroke="#DCF0FF" stroke-miterlimit="10"/>
<path d="M-862.866 911.99C-824.523 835.684 -755.6 784.814 -681.694 769.642C-649.869 763.171 -616.989 763.06 -584.685 769.865C-543.083 778.566 -502.918 797.531 -463.328 817.946C-382.712 859.558 -304.299 907.305 -220.328 896.037C-154.473 887.224 -88.5223 882.65 -25.1599 861.454C24.8782 844.609 59.8664 810.137 87.2819 764.287C99.2642 744.206 109.904 722.006 119.778 698.244C139.333 651.278 156.779 601.188 181.127 560.804C208.926 514.619 245.927 481.375 304.689 480.482C320.122 480.259 334.692 482.713 348.688 487.399C407.928 507.145 456.432 564.82 516.631 592.152C544.239 604.647 573.763 609.667 602.137 607.436C634.058 604.87 664.733 593.379 689.943 573.187C737.968 535.257 765.959 468.211 762.508 402.28C759.536 346.389 735.955 295.518 721.289 241.301C690.806 129.073 697.995 -2.00807 739.023 -116.244C750.43 -148.15 764.617 -178.717 781.296 -207.276C857.695 -337.353 987.008 -419.571 1117.18 -421.133" stroke="#DCF0FF" stroke-miterlimit="10"/>
<path d="M-867.275 903.735C-827.59 827.875 -758.955 777.004 -684.857 761.609C-652.936 755.027 -619.961 754.804 -587.656 761.832C-545.958 770.869 -505.985 790.391 -466.491 811.922C-385.97 855.765 -307.846 907.416 -223.107 898.268C-156.677 891.129 -89.6723 889.232 -25.1596 869.821C26.1246 854.649 61.7839 820.624 89.8704 774.996C102.14 755.027 112.972 732.939 123.133 709.177C143.168 662.322 161.093 612.121 186.016 572.072C214.486 526.221 252.159 493.869 312.262 494.985C327.887 495.319 342.649 498.443 356.644 503.798C416.076 526.333 463.718 586.686 523.917 614.129C551.524 626.735 581.24 631.198 609.902 627.962C642.11 624.393 672.977 611.117 698.187 588.917C746.021 546.971 772.382 474.458 765.959 404.176C760.495 344.715 733.943 291.279 716.496 234.496C680.358 117.136 684.096 -18.5188 724.165 -135.655C735.38 -168.342 749.376 -199.69 766.247 -228.695C843.221 -361.338 976.656 -442.664 1111.05 -439.206" stroke="#DCF0FF" stroke-miterlimit="10"/>
<path d="M-871.589 895.368C-812.828 787.491 -698.277 729.704 -590.628 753.689C-463.903 781.913 -353.091 910.986 -225.791 900.388C-158.786 894.81 -90.8226 895.479 -24.9679 878.076C50.4726 858.219 92.5545 798.2 126.776 720.11C170.775 619.819 205.092 503.575 320.122 509.599C403.327 513.95 457.295 602.192 531.586 636.106C590.443 662.992 659.269 650.609 706.911 604.647C754.552 558.685 779.38 480.705 769.985 406.073C762.125 343.154 732.601 286.928 712.375 227.579C658.886 70.7281 674.223 -115.017 751.868 -250.226C829.513 -385.434 966.975 -465.979 1105.68 -457.389" stroke="#DCF0FF" stroke-miterlimit="10"/>
<path d="M-864.783 910.763C-805.159 811.365 -691.279 757.593 -584.397 779.57C-530.908 790.503 -480.199 818.281 -430.161 845.167C-378.877 872.833 -328.359 899.719 -275.637 907.528C-258.67 910.094 -241.416 910.652 -223.97 908.532C-158.307 900.611 -92.0686 898.715 -26.5015 880.754C47.7888 860.45 90.7332 802.886 126.105 729.146C134.253 712.189 142.113 694.898 150.166 677.829C173.747 627.628 198.861 580.104 238.643 553.665C260.882 538.939 287.626 530.572 320.889 531.911C403.04 535.146 456.72 615.803 528.71 644.808C538.296 648.601 548.073 651.39 557.947 653.175C607.122 661.876 659.173 645.366 697.133 606.543C742.762 559.912 766.343 482.713 757.811 408.862C750.622 346.277 722.919 289.717 704.323 230.368C672.21 127.958 668.567 13.8333 691.669 -89.9161C704.131 -145.361 724.165 -197.681 751.581 -243.867C801.523 -328.205 875.046 -390.566 957.58 -423.476C1005.03 -442.441 1055.45 -451.365 1105.97 -448.8" stroke="#DCF0FF" stroke-miterlimit="10"/>
<path d="M-857.977 926.27C-797.49 835.238 -684.282 785.594 -578.167 805.675C-524.869 815.715 -474.352 840.927 -424.793 864.801C-373.988 889.344 -324.525 912.659 -272.666 918.014C-255.987 919.799 -239.116 919.576 -222.053 916.899C-157.828 906.747 -93.1233 902.285 -27.9396 883.543C45.2961 862.793 88.9116 807.46 125.53 738.182C133.965 722.229 142.209 706.053 150.453 690.1C174.801 643.246 200.203 599.292 239.984 574.972C262.319 561.362 288.872 553.441 321.56 554.334C402.656 556.453 456.145 629.636 525.834 653.732C535.132 656.856 544.526 659.087 554.112 660.314C601.466 666.227 651.217 648.043 687.451 608.774C730.971 561.474 753.498 485.056 745.637 411.874C739.023 349.624 713.333 292.841 696.366 233.38C667.033 130.97 665.404 17.2915 689.752 -85.2307C702.98 -140.229 723.686 -191.881 751.485 -237.285C802.194 -320.173 875.813 -381.195 958.443 -413.993C1005.8 -432.847 1056.03 -441.995 1106.45 -439.987" stroke="#DCF0FF" stroke-miterlimit="10"/>
<path d="M-851.267 941.776C-789.918 859.223 -677.38 813.484 -571.936 831.668C-518.926 840.705 -468.6 863.463 -419.521 884.435C-369.195 905.855 -320.691 925.712 -269.886 928.501C-253.494 929.394 -237.102 928.501 -220.327 925.266C-157.444 912.771 -94.4652 905.632 -29.6649 886.332C42.4206 864.913 86.8988 812.146 124.571 747.219C133.294 732.27 141.826 717.209 150.357 702.372C175.472 658.976 201.258 618.48 240.943 596.28C263.374 583.674 289.831 576.311 321.943 576.757C401.985 577.65 455.187 643.581 522.575 662.546C531.49 665.112 540.692 666.562 549.799 667.231C595.331 670.466 642.685 650.609 677.195 610.671C718.701 562.701 740.078 487.064 732.984 414.551C727.041 352.525 703.172 295.63 687.835 236.058C661.282 133.536 661.378 20.5269 687.164 -80.7682C701.063 -135.432 722.536 -186.302 750.718 -230.926C802.194 -312.475 875.909 -372.047 958.731 -404.845C1005.99 -423.587 1056.12 -432.847 1106.35 -431.396" stroke="#DCF0FF" stroke-miterlimit="10"/>
<path d="M-844.461 957.283C-782.249 883.208 -670.382 841.486 -565.705 857.662C-512.887 865.694 -462.849 886.109 -414.249 903.958C-364.498 922.365 -316.857 938.541 -267.01 938.764C-251.002 938.876 -234.898 937.314 -218.506 933.41C-157.061 918.795 -95.6156 908.867 -31.1988 889.009C39.7364 867.144 85.0775 816.72 123.9 756.143C132.911 742.199 141.73 728.254 150.549 714.643C176.43 674.594 202.6 637.668 242.189 617.476C264.716 605.986 291.077 599.292 322.614 599.069C401.602 598.623 454.611 657.191 519.603 671.247C528.231 673.144 537.05 674.036 545.869 674.148C589.58 674.594 634.633 653.063 667.417 612.679C706.815 564.04 726.945 489.184 720.714 417.452C715.346 355.76 693.49 298.53 679.783 238.847C656.01 136.324 658.023 23.762 685.055 -76.1944C699.721 -130.523 721.769 -180.613 750.43 -224.567C802.673 -304.666 876.58 -362.9 959.401 -395.586C1006.56 -414.216 1056.51 -423.699 1106.64 -422.806" stroke="#DCF0FF" stroke-miterlimit="10"/>
<path d="M-837.655 972.789C-774.484 907.081 -663.48 869.486 -559.474 883.654C-506.944 890.682 -457.001 908.643 -408.881 923.481C-359.609 938.764 -313.022 951.482 -264.039 949.139C-248.318 948.47 -232.597 946.127 -216.685 941.665C-156.581 924.819 -96.8616 912.213 -32.8283 891.686C36.9566 869.263 83.1603 821.182 123.133 765.068C132.431 752.015 141.634 739.298 150.645 726.803C177.197 690.1 203.75 656.856 243.435 638.672C266.058 628.297 292.227 621.827 323.285 621.38C401.218 620.265 453.94 670.912 516.632 680.06C524.971 681.287 533.407 681.51 541.843 681.064C583.733 678.721 626.485 655.629 657.543 614.687C694.928 565.266 713.908 491.303 708.444 420.24C703.747 358.883 683.713 301.431 671.731 241.635C650.833 139.113 654.668 27.1086 682.946 -71.7322C698.379 -125.726 721.098 -175.035 750.143 -218.208C803.056 -296.857 877.155 -353.64 960.168 -386.327C1007.33 -404.846 1056.99 -414.551 1106.93 -414.217" stroke="#DCF0FF" stroke-miterlimit="10"/>
<path d="M-830.945 988.185C-766.912 930.955 -656.579 897.264 -553.243 909.647C-500.905 915.672 -451.25 931.178 -403.609 943.115C-354.817 955.386 -309.188 964.423 -261.259 959.626C-245.826 958.064 -230.488 955.163 -214.959 950.032C-156.294 930.843 -98.108 915.672 -34.458 894.476C34.1765 871.606 81.243 825.867 122.366 774.104C131.952 762.056 141.442 750.454 150.74 739.075C178.06 705.83 204.996 676.044 244.586 659.98C267.4 650.72 293.377 644.696 323.86 643.804C400.739 641.572 453.269 684.746 513.564 688.873C521.616 689.431 529.668 689.096 537.72 688.092C577.789 682.961 618.241 658.306 647.574 616.806C682.85 566.717 700.68 493.646 695.982 423.141C691.861 362.119 673.743 304.331 663.391 244.536C645.273 142.014 651.025 30.5669 680.549 -67.0468C696.749 -120.595 720.139 -169.234 749.663 -211.626C803.344 -288.936 877.538 -344.269 960.647 -376.845C1007.71 -395.363 1057.27 -405.18 1107.02 -405.292" stroke="#DCF0FF" stroke-miterlimit="10"/>
<path d="M-824.139 1003.69C-759.243 954.829 -649.581 925.266 -547.012 935.641C-494.961 940.661 -445.403 953.713 -398.336 962.638C-350.024 971.786 -305.449 977.252 -258.383 970.001C-243.333 967.658 -228.284 963.977 -213.138 958.399C-155.815 936.98 -99.354 919.13 -36.0875 897.265C31.4926 873.949 79.3259 830.553 121.599 783.252C131.473 772.208 141.25 761.61 150.836 751.458C178.827 721.56 206.242 695.455 245.736 681.399C268.646 673.255 294.528 667.677 324.34 666.339C400.164 662.992 452.502 698.691 510.401 697.798C518.165 697.687 525.93 696.683 533.599 695.121C571.75 687.2 609.998 660.872 637.605 618.926C670.868 568.167 687.547 495.877 683.617 426.153C680.166 365.466 664.062 307.455 655.243 247.548C640.097 144.915 647.67 34.0255 678.345 -62.2495C695.312 -115.463 719.276 -163.321 749.28 -205.044C803.727 -280.904 878.113 -334.898 961.319 -367.473C1008.29 -385.881 1057.66 -395.809 1107.31 -396.59" stroke="#DCF0FF" stroke-miterlimit="10"/>
<path d="M-817.333 1019.2C-751.574 978.814 -642.583 953.49 -540.782 961.634C-488.922 965.762 -439.651 976.36 -392.968 982.161C-345.231 988.185 -301.519 990.081 -255.411 980.376C-240.649 977.252 -225.983 972.901 -211.221 966.654C-155.239 943.004 -100.408 922.588 -37.5253 900.054C28.9045 876.292 77.6965 835.238 120.929 792.288C131.09 782.248 141.155 772.765 151.028 763.729C179.69 737.29 207.585 714.643 246.982 702.595C269.988 695.567 295.678 690.324 325.011 688.65C399.78 684.188 451.927 712.412 507.429 706.611C514.811 705.83 522.287 704.269 529.573 702.149C565.903 691.439 601.754 663.55 627.732 620.934C658.886 569.506 674.511 497.997 671.251 428.942C668.376 368.478 654.189 310.356 646.999 250.337C634.633 147.703 644.123 37.3721 676.14 -57.7873C693.874 -110.666 718.51 -157.744 748.897 -198.686C804.111 -273.207 878.593 -325.751 961.894 -358.214C1008.77 -376.51 1057.94 -386.662 1107.5 -388" stroke="#DCF0FF" stroke-miterlimit="10"/>
<path d="M-810.623 1034.7C-744.002 1002.69 -635.777 981.491 -534.551 987.627C-482.979 990.75 -433.804 998.894 -387.696 1001.68C-340.438 1004.7 -297.781 1003.02 -252.632 990.75C-238.157 986.846 -223.874 981.714 -209.495 974.909C-154.952 948.916 -101.751 925.935 -39.1552 902.731C26.1244 878.523 75.779 839.7 120.161 801.213C130.61 792.176 141.059 783.81 151.124 775.889C180.456 752.796 208.83 733.831 248.228 723.791C271.33 717.879 296.924 713.082 325.682 710.962C399.397 705.384 451.352 726.022 504.553 715.313C511.647 713.862 518.74 711.631 525.738 708.954C560.247 695.455 593.797 665.892 618.05 622.831C647.191 570.733 661.569 500.005 659.173 431.731C656.968 371.601 644.698 313.144 639.138 253.014C629.553 150.381 641.056 40.6072 674.223 -53.325C692.723 -105.757 718.03 -152.166 748.8 -192.327C804.686 -265.398 879.359 -316.603 962.852 -348.955C1009.63 -367.139 1058.71 -377.514 1108.08 -379.299" stroke="#DCF0FF" stroke-miterlimit="10"/>
<path d="M-803.817 1050.21C-736.333 1026.67 -628.78 1009.38 -528.32 1013.62C-476.94 1015.74 -428.052 1021.43 -382.424 1021.32C-335.645 1021.21 -293.946 1016.07 -249.756 1001.13C-235.664 996.329 -221.669 990.528 -207.674 983.165C-154.472 954.94 -102.901 929.394 -40.7844 905.408C23.4406 880.754 73.958 844.274 119.395 810.138C130.131 802.105 140.867 794.854 151.22 788.049C181.224 768.303 210.077 753.02 249.379 744.988C272.672 740.191 297.979 735.84 326.257 733.274C398.918 726.58 450.681 739.744 501.486 724.014C508.292 721.895 515.002 719.106 521.617 715.871C554.304 699.583 585.554 668.458 608.081 624.839C635.113 572.072 648.437 502.125 646.712 434.52C645.178 374.725 634.729 316.045 630.799 255.804C624.089 153.17 637.413 43.8426 671.827 -48.7509C691.19 -100.849 716.976 -146.476 748.226 -185.968C804.878 -257.588 879.647 -307.455 963.236 -339.807C1009.92 -357.879 1058.81 -368.366 1107.98 -370.82" stroke="#DCF0FF" stroke-miterlimit="10"/>
<path d="M-797.011 1065.61C-728.664 1050.55 -621.782 1037.27 -522.09 1039.61C-470.997 1040.84 -422.301 1043.96 -377.056 1040.84C-330.852 1037.72 -290.112 1028.9 -246.784 1011.5C-232.981 1005.92 -219.369 999.452 -205.853 991.42C-154.089 960.853 -104.051 932.74 -42.3185 908.197C20.7563 883.097 72.2323 848.96 118.724 819.174C129.747 812.146 140.771 806.01 151.411 800.32C182.086 784.033 211.419 772.319 250.625 766.183C274.014 762.502 299.225 758.598 326.832 755.585C398.438 747.665 450.01 753.354 498.418 732.827C504.937 730.039 511.359 726.58 517.494 722.787C548.361 703.711 577.31 671.024 598.015 626.847C623.034 573.41 635.208 504.244 634.25 437.309C633.387 377.849 624.856 318.946 622.555 258.593C618.625 155.959 633.962 47.1893 669.526 -44.2886C689.656 -95.9402 716.113 -140.898 747.746 -179.609C805.165 -249.891 880.126 -298.307 963.811 -330.548C1010.4 -348.508 1059.19 -359.218 1108.17 -362.23" stroke="#DCF0FF" stroke-miterlimit="10"/>
<path d="M-790.301 1081.11C-720.995 1074.42 -614.88 1065.27 -515.859 1065.61C-464.958 1065.83 -416.453 1066.61 -371.784 1060.36C-326.059 1054.12 -286.278 1041.84 -244.004 1021.88C-230.488 1015.52 -217.26 1008.27 -204.127 999.675C-153.706 966.877 -105.393 936.199 -44.0438 910.875C17.9766 885.328 70.3152 853.645 117.861 828.098C129.172 822.074 140.483 817.054 151.411 812.48C182.757 799.539 212.569 791.507 251.679 787.38C275.165 784.925 300.279 781.244 327.311 777.785C397.863 768.749 449.243 766.853 495.255 741.417C501.486 737.959 507.525 733.943 513.372 729.592C542.418 707.727 568.97 673.367 588.046 628.632C610.956 574.526 622.076 506.141 621.788 439.987C621.597 380.749 614.887 321.623 614.216 261.27C613.065 158.636 630.416 50.4245 667.129 -39.8263C688.026 -91.1432 715.154 -135.32 747.267 -173.25C805.453 -242.082 880.51 -289.048 964.29 -321.288C1010.78 -339.249 1059.38 -350.07 1108.27 -353.529" stroke="#DCF0FF" stroke-miterlimit="10"/>
<path d="M-783.495 1096.62C-713.327 1098.4 -607.882 1093.16 -509.628 1091.6C-459.014 1090.82 -410.702 1089.15 -366.511 1080C-321.266 1070.63 -282.443 1054.79 -241.128 1032.36C-227.996 1025.22 -215.055 1017.19 -202.306 1008.04C-153.322 972.901 -106.543 939.768 -45.5773 913.664C15.2927 887.671 68.6859 858.331 117.094 837.246C128.789 832.226 140.292 828.321 151.507 824.975C183.524 815.381 213.911 811.141 252.926 808.91C276.603 807.572 301.43 804.336 327.983 800.432C397.576 790.28 448.668 780.798 492.284 750.454C498.227 746.326 503.883 741.641 509.347 736.732C536.57 712.078 560.823 676.156 578.173 630.863C599.07 576.088 609.039 508.483 609.519 442.999C609.902 384.096 605.205 324.747 606.164 264.282C607.793 161.537 627.061 53.9943 665.021 -35.0293C686.685 -86.0115 714.388 -129.408 746.979 -166.557C805.837 -233.938 881.085 -279.565 965.057 -311.694C1011.55 -329.544 1059.86 -340.588 1108.65 -344.604" stroke="#DCF0FF" stroke-miterlimit="10"/>
<path d="M-776.689 1112.13C-705.658 1122.28 -600.885 1121.16 -503.397 1117.59C-452.975 1115.81 -404.854 1111.68 -361.143 1099.52C-316.377 1087.14 -278.609 1067.73 -238.157 1042.74C-225.312 1034.82 -212.754 1026 -200.389 1016.3C-152.747 978.814 -107.694 943.115 -47.1111 916.453C12.7045 890.013 66.9603 863.128 116.423 846.282C128.406 842.266 140.196 839.477 151.699 837.246C184.387 830.887 215.253 829.214 254.172 830.106C277.945 830.664 302.676 827.094 328.654 822.744C397.192 811.365 448.093 794.408 489.312 759.155C494.968 754.358 500.24 749.115 505.416 743.649C530.819 716.205 552.77 678.61 568.395 632.871C587.184 577.427 596.098 510.603 597.249 445.788C598.303 387.219 595.427 327.647 598.016 266.959C602.425 164.214 623.706 57.2296 662.912 -30.6784C685.438 -81.2144 713.717 -123.941 746.692 -160.421C806.316 -226.463 881.756 -270.641 965.728 -302.769C1012.12 -320.507 1060.34 -331.663 1108.94 -336.237" stroke="#DCF0FF" stroke-miterlimit="10"/>
<path d="M-769.979 1127.52C-698.085 1146.15 -594.079 1148.72 -497.166 1143.47C-447.032 1140.57 -399.103 1134.21 -355.871 1118.93C-311.68 1103.42 -274.775 1080.56 -235.377 1052.89C-222.82 1044.08 -210.646 1034.7 -198.663 1024.33C-152.459 984.615 -108.94 946.35 -48.7408 918.907C9.92452 892.133 65.139 867.478 115.656 854.984C127.926 851.972 140.004 850.187 151.795 849.183C185.058 846.171 216.499 849.518 255.322 851.079C279.287 852.083 303.73 849.629 329.133 844.832C396.617 832.338 447.326 807.795 486.245 767.745C491.517 762.279 496.597 756.366 501.294 750.342C524.876 720.11 544.527 680.953 558.426 634.656C575.201 578.542 582.87 512.5 584.787 448.465C586.512 390.231 585.362 330.325 589.772 269.637C596.769 166.892 620.255 60.4647 660.611 -26.2162C683.905 -76.4175 712.854 -118.363 746.213 -154.062C806.603 -218.654 882.14 -261.493 966.303 -293.51C1012.6 -311.136 1060.63 -322.515 1109.04 -327.647" stroke="#DCF0FF" stroke-miterlimit="10"/>
<path d="M-763.173 1143.03C-690.417 1170.14 -587.081 1176.72 -490.935 1169.58C-440.993 1165.67 -393.352 1156.86 -350.599 1138.68C-306.887 1120.16 -271.036 1093.61 -232.501 1063.49C-220.327 1053.89 -208.537 1043.74 -196.842 1032.81C-151.98 990.751 -110.09 950.032 -50.2746 921.807C7.33631 894.587 63.4134 872.499 114.985 864.132C127.543 862.124 139.908 861.677 151.987 861.566C185.92 861.12 217.841 868.929 256.568 872.499C280.628 874.618 304.976 872.499 329.804 867.367C396.234 853.645 446.655 821.516 483.273 776.67C488.258 770.534 492.955 764.064 497.268 757.482C519.028 724.46 536.379 683.63 548.553 636.887C563.219 580.104 569.833 514.842 572.517 451.477C574.914 393.467 575.68 333.448 581.624 272.649C591.497 169.903 616.9 64.0345 658.406 -21.5308C682.563 -71.2859 711.991 -112.563 745.829 -147.48C806.891 -210.622 882.619 -252.122 966.878 -284.028C1013.08 -301.543 1060.92 -313.145 1109.23 -318.834" stroke="#DCF0FF" stroke-miterlimit="10"/>
<path d="M-756.367 1158.53C-682.748 1194.01 -580.083 1204.72 -484.704 1195.57C-435.05 1190.66 -387.504 1179.4 -345.23 1158.2C-301.998 1136.56 -267.01 1106.66 -229.529 1073.86C-217.643 1063.49 -206.236 1052.55 -195.02 1041.06C-151.597 996.663 -111.24 953.49 -51.9039 924.485C4.55664 896.93 61.5924 877.184 114.219 873.056C127.064 872.052 139.717 872.498 152.083 873.726C186.688 877.295 219.088 888.228 257.719 893.583C281.875 896.93 306.127 895.145 330.379 889.567C395.755 874.618 445.888 835.015 480.206 785.26C484.903 778.455 489.216 771.315 493.242 764.175C513.085 728.365 528.135 685.973 538.679 638.56C551.333 580.996 556.797 516.627 560.152 453.931C563.219 396.255 565.807 336.014 573.476 275.103C586.129 172.358 613.545 67.0465 656.202 -17.2917C681.125 -66.6006 711.224 -107.319 745.446 -141.456C807.274 -203.26 883.098 -243.309 967.55 -275.103C1013.66 -292.506 1061.4 -304.22 1109.52 -310.467" stroke="#DCF0FF" stroke-miterlimit="10"/>
<path d="M-749.657 1174.04C-675.175 1217.99 -573.182 1232.61 -478.473 1221.56C-429.011 1215.65 -381.752 1201.93 -339.958 1177.72C-297.301 1153.07 -263.271 1119.49 -226.654 1084.24C-215.055 1073.08 -204.031 1061.37 -193.199 1049.32C-151.309 1002.46 -112.39 957.06 -53.4375 927.274C1.96866 899.272 59.8671 881.2 113.452 882.204C126.68 882.427 139.621 883.654 152.275 886.109C187.55 892.914 220.43 907.751 259.061 915.002C283.313 919.576 307.373 918.014 331.146 912.102C395.467 896.037 445.409 848.848 477.33 794.296C481.74 786.822 485.67 779.124 489.312 771.427C507.334 732.827 520.083 688.873 528.902 640.903C539.446 582.67 543.952 519.081 547.978 457.167C551.716 399.825 556.222 339.249 565.52 278.338C580.953 175.481 610.477 70.8397 654.189 -12.2713C679.975 -61.2455 710.649 -101.183 745.254 -134.539C807.85 -194.892 883.866 -233.603 968.317 -265.397C1014.33 -282.689 1061.87 -294.626 1109.9 -301.431" stroke="#DCF0FF" stroke-miterlimit="10"/>
<path d="M-742.851 1189.55C-667.411 1241.87 -566.184 1260.61 -472.243 1247.56C-423.068 1240.64 -375.905 1224.58 -334.59 1197.36C-292.413 1169.58 -259.342 1132.54 -223.778 1094.72C-212.467 1082.79 -201.827 1070.4 -191.378 1057.69C-150.83 1008.6 -113.541 960.629 -55.0675 930.062C-0.715794 901.727 58.0453 886.889 112.685 891.24C126.201 892.356 139.429 894.81 152.37 898.38C188.413 908.42 221.58 927.162 260.211 936.31C284.559 942.111 308.523 940.884 331.625 934.525C394.892 917.233 444.546 862.57 474.167 803.109C478.288 794.965 481.931 786.598 485.19 778.343C501.39 736.955 511.839 691.327 518.836 642.911C527.368 584.008 530.723 521.201 535.42 459.955C539.925 402.949 546.156 342.15 557.084 281.016C575.297 178.159 606.93 74.1862 651.696 -7.92078C678.345 -56.4487 709.499 -95.7173 744.679 -128.292C808.041 -187.307 884.153 -224.456 968.796 -256.25C1014.71 -273.541 1062.16 -285.59 1109.9 -292.953" stroke="#DCF0FF" stroke-miterlimit="10"/>
<path d="M-736.045 1204.94C-659.742 1265.74 -559.282 1288.5 -466.012 1273.55C-417.028 1265.63 -370.154 1247.11 -329.318 1216.88C-287.62 1185.98 -255.507 1145.48 -220.902 1104.99C-209.974 1092.27 -199.622 1079.1 -189.556 1065.94C-150.446 1014.51 -114.691 964.199 -56.601 932.74C-3.30377 904.069 56.2243 891.687 112.014 900.165C125.817 902.285 139.334 905.743 152.562 910.54C189.276 923.815 222.922 946.462 261.457 957.506C285.997 964.534 309.674 963.53 332.296 956.837C394.413 938.206 443.779 876.068 471.195 811.811C474.933 802.997 478.288 794.073 481.164 785.26C495.543 741.083 503.691 693.893 508.963 644.919C515.386 585.347 517.686 523.32 523.15 462.744C528.327 406.073 536.475 345.05 549.032 283.805C570.025 180.948 603.671 77.533 649.683 -3.34686C677.195 -51.4285 708.924 -90.0278 744.487 -121.933C808.521 -179.498 884.824 -215.308 969.562 -246.99C1015.48 -264.17 1062.64 -276.442 1110.28 -284.251" stroke="#DCF0FF" stroke-miterlimit="10"/>
<path d="M-729.239 1220.45C-611.429 1326.09 -440.897 1332.79 -323.95 1236.4C-282.827 1202.49 -251.673 1158.31 -217.931 1115.36C-165.88 1048.98 -130.604 975.801 -58.135 935.417C6.95283 899.161 84.8857 892.579 152.658 922.811C190.042 939.433 224.168 965.873 262.607 978.702C364.792 1012.73 449.818 894.252 477.138 792.176C504.937 688.204 499.569 574.637 510.88 465.533C526.505 314.371 572.134 128.292 647.478 1.22692C726.657 -132.42 838.332 -188.534 970.137 -237.731C1015.96 -254.8 1062.93 -267.183 1110.47 -275.661" stroke="#DCF0FF" stroke-miterlimit="10"/>
</g>
</g>
</svg>
