<svg width="29" height="28" viewBox="0 0 29 28" fill="none" xmlns="http://www.w3.org/2000/svg">
<path fill-rule="evenodd" clip-rule="evenodd" d="M24.8571 9.8C26.3825 9.8 27.619 11.0536 27.619 12.6C27.619 13.1307 27.4701 13.6249 27.2172 14.0479L28.6979 15.925L29 16.3092V28H0V22.4C0 20.5716 0.671295 18.8009 1.89072 17.4822C3.11293 16.1608 4.79023 15.4 6.55952 15.4H16.9167C18.686 15.4 20.3633 16.1608 21.5855 17.4822C22.8049 18.8009 23.4762 20.5716 23.4762 22.4V25.2H26.2381V17.2922L24.7398 15.3932C23.269 15.3308 22.0952 14.1065 22.0952 12.6C22.0952 11.0536 23.3318 9.8 24.8571 9.8ZM6.55952 18.2C5.58223 18.2 4.62557 18.6191 3.90551 19.3977C3.18259 20.1794 2.7619 21.258 2.7619 22.4V25.2H20.7143V22.4C20.7143 21.258 20.2936 20.1794 19.5707 19.3977C18.8506 18.6191 17.894 18.2 16.9167 18.2H6.55952Z" fill="#A7B2CC"/>
<path fill-rule="evenodd" clip-rule="evenodd" d="M11.7381 0C15.1702 0 17.9524 2.82061 17.9524 6.3C17.9524 9.77939 15.1702 12.6 11.7381 12.6C8.30604 12.6 5.52381 9.77939 5.52381 6.3C5.52381 2.82061 8.30604 0 11.7381 0ZM11.7381 2.8C9.8314 2.8 8.28571 4.367 8.28571 6.3C8.28571 8.233 9.8314 9.8 11.7381 9.8C13.6448 9.8 15.1905 8.233 15.1905 6.3C15.1905 4.367 13.6448 2.8 11.7381 2.8Z" fill="#A7B2CC"/>
</svg>
