<svg width="136" height="60" viewBox="0 0 136 60" fill="none" xmlns="http://www.w3.org/2000/svg">
<path fill-rule="evenodd" clip-rule="evenodd" d="M21.7777 52.5192C21.7777 52.8786 21.4815 53.171 21.114 53.1751C19.8566 53.1878 17.1381 53.2151 15.8596 53.2283C15.6784 53.2302 15.5038 53.16 15.3762 53.0343C15.2486 52.9082 15.1787 52.7374 15.182 52.5597C15.2136 50.9697 15.2914 47.0359 15.3152 45.8371C15.3166 45.7615 15.2779 45.6904 15.2132 45.6494C15.1484 45.6084 15.066 45.603 14.9961 45.6353C14.0116 46.0899 11.1012 47.433 10.5605 47.6831C10.505 47.7086 10.4626 47.7555 10.4436 47.8129C10.1986 48.5439 8.5196 53.5517 8.00356 55.0912C7.91367 55.3595 7.65845 55.5412 7.36969 55.5426C6.0647 55.5489 2.44918 55.5672 0.67426 55.5758C0.450707 55.5767 0.241125 55.4688 0.115376 55.2879C-0.00990723 55.1067 -0.0350571 54.8767 0.0492412 54.6735C1.86235 50.3995 9.46411 32.4765 9.46411 32.4706C9.46411 32.4652 17.9484 28.7017 20.8346 27.4218C21.0423 27.3298 21.2836 27.3471 21.475 27.4678C21.6664 27.5885 21.7824 27.7962 21.7824 28.0194C21.7814 32.329 21.7787 49.013 21.7777 52.5201V52.5192ZM15.1927 40.7605C15.2686 40.7254 15.318 40.6521 15.3212 40.5701C15.3436 39.9543 15.4363 37.3773 15.4684 36.4719C15.4712 36.3999 15.4372 36.3316 15.3785 36.2888C15.3194 36.246 15.243 36.2341 15.1731 36.2573C14.7144 36.4099 13.8709 36.6896 13.5766 36.7875C13.5104 36.8094 13.4587 36.8604 13.4364 36.9246C13.2259 37.5367 12.1286 40.7236 11.7048 41.9543C11.6764 42.0372 11.701 42.1287 11.7676 42.187C11.8347 42.2453 11.9307 42.259 12.0117 42.2216C12.8849 41.8204 14.7036 40.985 15.1927 40.7605Z" fill="#FBFCFE"/>
<path fill-rule="evenodd" clip-rule="evenodd" d="M22.6021 23.2042V23.3914C22.6021 23.6442 22.4535 23.8746 22.2197 23.9835L4.01594 32.4629C3.82033 32.5539 3.59165 32.5471 3.4021 32.4442C3.21254 32.3412 3.08539 32.155 3.06118 31.9445L2.39471 26.1706C2.35885 25.8614 2.55026 25.5703 2.85253 25.4738L4.55246 24.9304C4.54129 24.8972 4.53244 24.863 4.52685 24.8284L4.10722 22.2905C4.05506 21.9763 4.24182 21.6707 4.5492 21.5664L8.44509 20.2423C8.63744 20.1767 8.85028 20.2004 9.0226 20.307C9.19493 20.4131 9.30903 20.5903 9.33139 20.7884L9.62154 23.3094L13.2748 22.1412L13.0829 16.4688L3.7146 19.5359C3.52272 19.5988 3.31221 19.5733 3.14128 19.4671C2.97082 19.3605 2.85811 19.1847 2.83529 18.988L2.33276 14.6643L9.07104 12.6989L8.793 8.1261C8.7739 7.81319 8.98395 7.53126 9.29366 7.45247L14.0018 6.25642C14.1997 6.20632 14.4102 6.24686 14.5733 6.3671C14.7367 6.48734 14.835 6.67362 14.8406 6.87312L14.9561 10.9823L20.4113 9.39092C20.6143 9.33171 20.8337 9.36997 21.0037 9.4934C21.1737 9.61728 21.2738 9.81222 21.2738 10.0195V13.3147C21.2738 13.5967 21.0894 13.8472 20.816 13.9369L18.8431 14.5827C18.8673 14.6529 18.8795 14.7276 18.8781 14.8036L18.7803 20.3808L20.4108 19.8593C20.1765 20.5675 20.19 21.437 20.9273 22.3334C21.4159 22.9273 22.0073 23.1687 22.6012 23.2051L22.6021 23.2042Z" fill="#FBFCFE"/>
<path fill-rule="evenodd" clip-rule="evenodd" d="M36.0309 6.8394C36.2009 6.94461 36.3233 7.0981 36.4081 7.2648C36.4291 7.30625 36.4477 7.34815 36.464 7.39006C36.7644 7.22472 37.0983 7.18418 37.3577 7.29395C37.8188 7.48935 37.9651 7.83413 37.9222 8.23585C37.8817 8.61889 37.6218 9.07663 37.3172 9.45695C37.334 9.47881 37.3498 9.50158 37.3657 9.52526C37.7355 10.0919 38.0307 11.1167 38.0242 11.6573C38.014 12.5363 37.7741 13.2746 37.3312 13.8125C37.4141 13.818 37.5045 13.8189 37.6032 13.8162C37.3326 14.0248 37.1319 14.2971 37.014 14.6456C36.9991 14.6893 37.0238 14.7367 37.0685 14.7512C37.1132 14.7658 37.1617 14.7417 37.1766 14.698C37.313 14.2931 37.5748 14.0025 37.9329 13.8002C38.1779 13.7852 38.4648 13.7647 38.802 13.7561C38.4653 13.9747 38.2189 14.2748 38.0829 14.677C38.068 14.7207 38.0927 14.7681 38.1374 14.7827C38.1821 14.7972 38.2305 14.7731 38.2454 14.7294C38.401 14.268 38.7186 13.9551 39.1569 13.7524C39.2929 13.7529 39.4363 13.7561 39.5872 13.7624C39.6147 12.9226 40.7888 12.698 41.6644 12.7864C43.9628 13.0182 44.2506 14.1309 43.7565 15.4431C43.4994 16.1254 42.8241 16.7535 42.0957 16.8983C41.8218 16.953 41.4367 17.0117 40.9728 17.0732C40.895 17.4845 40.7581 18.0629 40.6007 18.0779C40.4474 18.0925 40.0828 17.5897 39.8322 17.2121C37.5752 17.4685 34.4283 17.7418 32.4647 17.9044C32.3185 18.2884 32.1038 18.7885 31.971 18.8012C31.8369 18.814 31.6199 18.3435 31.4746 17.9855C30.9539 18.0274 30.6432 18.0515 30.6432 18.0515C29.0616 20.8667 35.2829 20.0455 41.3757 19.2845C41.3757 19.2845 42.3467 20.6281 40.6445 21.6406C38.3651 22.9965 29.4328 23.9047 25.6645 22.2828C25.3352 22.1411 25.0362 21.9444 24.7717 21.7039L24.7493 21.7722C24.7777 21.7754 22.6777 23.3686 21.4724 21.9043C20.1111 20.2496 21.9931 18.722 21.9931 18.722C20.6141 18.6054 20.0826 17.3387 20.2233 16.1021C20.4534 14.0817 23.3312 14.7421 23.3312 14.7421C22.9609 14.2361 22.137 12.0075 24.0698 11.4778C25.257 11.1522 26.1121 11.6404 26.6477 12.4279C26.6276 12.2672 26.6169 12.1018 26.6169 11.9324C26.6165 11.6336 26.6239 11.1695 26.7329 10.7163C26.5797 10.5669 26.3817 10.3451 26.2332 10.0791C26.0487 9.74844 25.943 9.35401 26.0487 8.94455C26.1181 8.67537 26.2788 8.39572 26.5848 8.12472C26.8857 7.85873 27.2634 7.80043 27.6127 7.8396C27.6662 7.84552 27.7189 7.85417 27.7696 7.86419L27.5004 6.54745C27.2103 6.57386 26.7767 6.60484 26.4181 6.59345C26.0846 6.58297 25.8061 6.5183 25.6766 6.42948C25.4428 6.2687 25.2933 5.90023 25.2942 5.51172C25.2952 5.13916 25.4326 4.77205 25.6328 4.60034C25.7576 4.49331 25.997 4.4136 26.2816 4.38855C26.4674 4.37216 26.6751 4.37352 26.861 4.38081C26.813 4.22641 26.766 4.05607 26.7371 3.90075C26.6877 3.63795 26.7031 3.40612 26.7655 3.27768C26.8214 3.16336 26.9579 3.01032 27.1474 2.87414C27.3919 2.69833 27.7235 2.54393 27.9997 2.50886C28.3104 2.46969 28.5656 2.56533 28.7141 2.79033C28.8534 3.00167 28.9931 3.36695 29.1249 3.82059C29.4034 4.78071 29.6689 6.16486 29.946 7.16597L30.0457 7.46247C30.2157 7.31991 30.4383 7.22836 30.7429 7.21561C30.7489 7.21516 30.755 7.21516 30.7611 7.21516C31.2617 7.22153 31.7223 7.61369 32.0279 8.18438C32.1033 8.32512 32.1699 8.47633 32.2267 8.63165C32.2337 8.61161 32.2412 8.59157 32.2486 8.57153C32.461 7.99855 32.8257 7.42649 33.4274 7.09264C33.5122 7.04572 33.5941 7.01248 33.6728 6.99061C33.8414 5.50854 34.1358 3.15653 34.3705 2.53618C34.4781 2.25198 34.7832 2.09757 35.1683 2.11853C35.4049 2.13128 35.6699 2.2078 35.8748 2.31346C36.0444 2.40091 36.1743 2.51205 36.2456 2.61726C36.3289 2.74069 36.3774 2.98755 36.362 3.2795C36.3513 3.47899 36.3196 3.70445 36.2852 3.90212C36.5404 3.8543 36.8487 3.80465 37.1165 3.78279C37.443 3.75637 37.721 3.7878 37.8556 3.85794C38.1025 3.98683 38.2962 4.31796 38.3386 4.68825C38.3796 5.04624 38.279 5.41699 38.0624 5.62195C37.9427 5.73536 37.6726 5.86243 37.3428 5.96354C36.9246 6.09198 36.4039 6.19993 36.0979 6.25868L36.0318 6.83894L36.0309 6.8394ZM35.3444 6.69411L35.431 5.93166C35.4482 5.78045 35.5656 5.65884 35.7188 5.63288C35.7188 5.63288 36.5362 5.49487 37.1328 5.31178C37.3307 5.2512 37.504 5.19928 37.5757 5.13096C37.6591 5.05216 37.6591 4.90095 37.6437 4.76385C37.6344 4.68142 37.6134 4.6008 37.5794 4.5343C37.5659 4.50743 37.5543 4.48101 37.5347 4.46598C37.5045 4.4637 37.3154 4.45186 37.1742 4.46325C36.6359 4.50697 35.92 4.67549 35.92 4.67549C35.8022 4.70328 35.6778 4.66866 35.5917 4.58486C35.506 4.50105 35.4706 4.37944 35.4985 4.26421C35.4985 4.26421 35.6406 3.6835 35.6639 3.24397C35.669 3.14878 35.6555 3.01351 35.6522 2.98117C35.6294 2.95749 35.5903 2.93881 35.5488 2.91741C35.4273 2.85455 35.2699 2.80764 35.1292 2.80035C35.0929 2.79853 35.0402 2.80536 35.0128 2.80946C34.7878 3.46169 34.5168 5.68207 34.3607 7.09173C34.4115 7.12224 34.459 7.1564 34.5032 7.19284C34.6681 6.96101 34.9336 6.72599 35.3448 6.69365L35.3444 6.69411ZM32.8946 12.9904C32.9775 13.1508 33.0781 13.2988 33.1964 13.4313C33.2313 13.4705 33.2672 13.5083 33.3049 13.5443C33.6952 13.9196 34.2466 14.1437 34.9462 14.1596C35.58 14.1742 36.0965 14.028 36.4868 13.7447C36.5828 13.675 36.6708 13.5971 36.7514 13.5115C37.1682 13.0669 37.3745 12.4216 37.3838 11.6495C37.389 11.1959 37.1361 10.3374 36.8259 9.86185C36.6857 9.64687 36.4309 9.60679 36.179 9.60998C35.6704 9.61681 35.1422 9.81767 34.996 9.84682L35.0109 9.84454C34.1702 10.0249 33.2989 10.3565 32.8163 10.5546C32.7181 10.5951 32.7125 10.5983 32.6496 10.6252C32.5392 10.6958 32.5658 11.3312 32.5961 11.6546C32.6426 12.1474 32.6962 12.606 32.8951 12.99L32.8946 12.9904ZM29.2032 7.08672C28.9899 6.26688 28.7826 5.25758 28.5693 4.43319C28.4286 3.88982 28.2931 3.43071 28.1441 3.18659C28.1115 3.18886 28.0328 3.19524 27.982 3.21027C27.8181 3.25992 27.6453 3.35784 27.5181 3.45713C27.4702 3.49448 27.4268 3.52727 27.405 3.55824C27.4078 3.59514 27.4254 3.79873 27.4604 3.93673C27.5465 4.28015 27.6895 4.63678 27.6895 4.63678C27.7347 4.74882 27.7156 4.8759 27.6402 4.97109C27.5647 5.06628 27.4431 5.11547 27.3211 5.10044C27.3211 5.10044 26.9103 5.04989 26.5238 5.05899C26.4073 5.06173 26.2932 5.06947 26.1964 5.08814C26.1577 5.09543 26.1014 5.11456 26.0883 5.11912C26.0627 5.14553 26.0492 5.18789 26.0348 5.23298C26.0077 5.3177 25.9942 5.41608 25.9942 5.51309C25.9938 5.60692 26.0054 5.70074 26.0329 5.77999C26.0441 5.81233 26.0525 5.84467 26.0725 5.8638C26.1004 5.86926 26.2956 5.90524 26.4423 5.9098C26.9942 5.92711 27.7389 5.8351 27.7389 5.8351C27.9205 5.81279 28.0891 5.93166 28.125 6.10701L28.3974 7.44107C28.5376 7.28348 28.7239 7.15412 28.9708 7.1063C29.0537 7.09036 29.1314 7.08398 29.2046 7.08626L29.2032 7.08672ZM31.5393 10.4193C31.4122 10.3647 31.2817 10.3173 31.1532 10.2754C30.5021 10.0636 29.8892 10.0062 29.8892 10.0062C29.8743 10.0049 29.8599 10.0026 29.845 9.99895C29.845 9.99895 29.3359 9.88007 28.7975 9.85639C28.4813 9.84227 28.1511 9.85183 27.9368 9.96798C27.6043 10.1483 27.4473 10.4931 27.3607 10.8411C27.3528 10.873 27.3453 10.9049 27.3388 10.9367C27.2596 11.3102 27.2573 11.6851 27.2578 11.9306C27.2587 12.3974 27.3481 12.8306 27.5274 13.204C27.6248 13.4067 27.7482 13.5912 27.8982 13.7542C28.322 14.2133 28.9549 14.4907 29.7797 14.5085C30.6293 14.5272 31.2822 14.288 31.7209 13.8367C31.8299 13.7246 31.9254 13.6003 32.0074 13.4646C32.0884 13.3311 32.1564 13.1863 32.2118 13.0323C32.1233 12.6024 32.0083 12.1433 31.9547 11.6559C31.9403 11.5257 31.8243 10.6357 31.8527 10.5737C31.8062 10.5469 31.7582 10.5214 31.7093 10.4972C31.6539 10.4694 31.5971 10.4439 31.5393 10.4193Z" fill="#FBFCFE"/>
<path d="M30.6601 12.5273C30.8841 12.5273 31.0657 12.3497 31.0657 12.1306C31.0657 11.9115 30.8841 11.7339 30.6601 11.7339C30.436 11.7339 30.2544 11.9115 30.2544 12.1306C30.2544 12.3497 30.436 12.5273 30.6601 12.5273Z" fill="#FBFCFE"/>
<path d="M35.9835 12.0832C36.2076 12.0832 36.3892 11.9055 36.3892 11.6864C36.3892 11.4673 36.2076 11.2897 35.9835 11.2897C35.7595 11.2897 35.5779 11.4673 35.5779 11.6864C35.5779 11.9055 35.7595 12.0832 35.9835 12.0832Z" fill="#FBFCFE"/>
<path fill-rule="evenodd" clip-rule="evenodd" d="M26.0753 32.0269L25.1475 32.1404C24.9594 32.1631 24.7703 32.1076 24.6268 31.9864C24.4834 31.8657 24.3986 31.6908 24.394 31.5054L24.2864 27.2778C24.278 26.9467 24.5234 26.6611 24.8588 26.6129L40.1624 24.4002C40.3408 24.3743 40.5224 24.4203 40.6663 24.5268C40.8102 24.6339 40.9039 24.7928 40.9257 24.9677L41.5009 29.4791C41.5466 29.8384 41.2862 30.1659 40.9188 30.211L32.3622 31.2577C32.3418 34.7046 32.2961 43.6786 32.3585 46.1809C32.3841 47.2116 32.305 49.6543 33.5364 50.0341C37.8598 51.3677 44.5841 50.5411 52.3163 49.4097C57.0076 48.7233 61.3148 47.2467 62.725 44.8127C63.3356 43.7542 64.4422 43.0601 65.6806 42.9594C67.7154 42.7973 70.2918 42.8474 70.4856 44.1026C70.8093 46.1982 71.9201 52.5838 66.4234 54.2722C58.6703 56.6538 32.9966 55.9265 26.5042 55.1089C23.687 54.7541 24.6338 52.0928 24.1723 49.3523C24.0922 48.8768 26.6374 49.3195 26.595 48.629C26.2923 43.7155 26.1088 33.9349 26.0753 32.0269Z" fill="#FBFCFE"/>
<path fill-rule="evenodd" clip-rule="evenodd" d="M35.3971 34.9292C35.4376 34.7192 35.5997 34.5512 35.8121 34.5001C37.6834 34.0483 46.5427 31.9086 48.9691 31.3224C49.1252 31.2846 49.29 31.3146 49.4218 31.4039C49.5536 31.4932 49.6398 31.6339 49.6584 31.7897C49.7954 32.9429 50.0883 35.407 50.2164 36.4823C50.2509 36.7729 50.045 37.0389 49.7497 37.0854C47.4182 37.4502 38.171 38.8986 38.171 38.8986C38.171 38.8986 35.6463 40.6872 34.6124 41.42C34.5392 41.4719 34.4414 41.4756 34.3646 41.4296C34.2877 41.3836 34.2463 41.297 34.2603 41.2096C34.3827 40.4344 34.5993 39.063 34.5993 39.063C34.5993 39.063 35.1945 35.9795 35.3976 34.9296L35.3971 34.9292Z" fill="#FBFCFE"/>
<path fill-rule="evenodd" clip-rule="evenodd" d="M35.3548 42.5099C35.3212 42.3633 35.351 42.2098 35.4367 42.085C35.5224 41.9602 35.657 41.8759 35.8084 41.8513C38.6475 41.39 51.0012 39.3832 53.6708 38.9496C53.9586 38.9027 54.2348 39.0803 54.3047 39.3572C54.5883 40.4772 55.2594 43.1262 55.2594 43.1262C55.2594 43.1262 55.7778 45.0487 56.0377 46.0111C56.0609 46.0981 56.0279 46.1901 55.9538 46.2429C55.8798 46.2962 55.7801 46.2994 55.7023 46.2516C55.0671 45.8608 54.0257 45.2199 54.0257 45.2199C54.0257 45.2199 39.6391 46.4005 36.793 46.6337C36.5144 46.6565 36.262 46.4747 36.201 46.2083C36.0012 45.3347 35.5704 43.4527 35.3543 42.5086L35.3548 42.5099Z" fill="#FBFCFE"/>
<path fill-rule="evenodd" clip-rule="evenodd" d="M51.9905 19.4981L51.0604 10.4312L44.636 11.3822C44.4302 11.4128 44.2211 11.3476 44.0711 11.2064C43.9207 11.0652 43.8461 10.8635 43.8694 10.6612L44.2863 6.99431C44.3207 6.69143 44.5643 6.4514 44.8736 6.41541L50.5807 5.75272L50.2593 2.61776C50.2239 2.27207 50.4698 1.95962 50.8205 1.90451L53.9019 1.42172C54.2661 1.36479 54.6089 1.60573 54.6694 1.9619L55.2222 5.2139L60.8758 4.55758C61.2377 4.51568 61.5679 4.76391 61.6191 5.11689L62.0569 8.14663C62.1086 8.5028 61.8571 8.83301 61.4934 8.88676L55.9856 9.70204L56.8332 14.6889L56.0326 16.0904C55.7317 16.6173 55.8659 17.2796 56.3498 17.6544L57.4871 18.5353L58.3999 23.9057L67.1488 26.8534C67.2326 26.8816 67.3011 26.9427 67.3374 27.0219C67.3738 27.1012 67.3747 27.1918 67.3407 27.272L65.1149 32.4729C65.0763 32.5631 64.9971 32.6305 64.9002 32.6556C64.8034 32.6806 64.7004 32.6596 64.6213 32.6L59.1745 28.4621L60.356 35.4129C60.3854 35.5851 60.343 35.7618 60.2387 35.9039C60.1343 36.0456 59.9765 36.1408 59.7999 36.1685L54.4975 36.9947C54.3154 37.023 54.1291 36.977 53.9829 36.8668C53.8367 36.7565 53.7435 36.5921 53.7249 36.4127L52.69 26.3228L45.8726 29.9014C45.6839 30.0002 45.4585 30.0052 45.2652 29.915C45.0724 29.8244 44.935 29.6495 44.8959 29.4436L44.0003 24.736C43.9491 24.4677 44.0734 24.1967 44.3119 24.055L51.99 19.4995L51.9905 19.4981Z" fill="#FBFCFE"/>
<path fill-rule="evenodd" clip-rule="evenodd" d="M117.404 36.3839L125.071 37.0015C125.071 37.0015 122.884 55.1982 122.433 58.9494C122.413 59.1257 122.319 59.286 122.175 59.3935C122.031 59.5014 121.849 59.5474 121.669 59.5215C119.966 59.2746 115.552 58.6338 113.842 58.3855C113.661 58.3591 113.5 58.2621 113.394 58.1168C113.288 57.9715 113.248 57.7898 113.282 57.6144C113.996 53.9361 117.404 36.3835 117.404 36.3835L117.404 36.3839Z" fill="#FBFCFE"/>
<path fill-rule="evenodd" clip-rule="evenodd" d="M128.758 0.493051C128.94 0.507626 129.107 0.593254 129.223 0.731259C129.338 0.868809 129.391 1.04689 129.37 1.22361C128.979 4.47471 127.311 18.3545 127.311 18.3545L121.147 17.1006C121.147 17.1006 123.749 3.70133 124.325 0.729892C124.389 0.400593 124.696 0.171495 125.038 0.198367C125.972 0.272152 127.77 0.414712 128.758 0.493051H128.758Z" fill="#FBFCFE"/>
<path fill-rule="evenodd" clip-rule="evenodd" d="M72.2814 25.2223C72.2614 29.4777 72.3052 33.718 72.4114 37.9434C72.4207 38.3 72.1366 38.5983 71.7724 38.6147L66.9837 38.8352C66.8044 38.8434 66.6288 38.781 66.497 38.6616C66.3652 38.5423 66.2874 38.3761 66.2818 38.2003C66.2157 36.0692 66.1756 33.9339 66.1626 31.7937L67.985 27.5347C68.094 27.2805 68.0903 26.9931 67.9748 26.7417C67.8593 26.4903 67.6427 26.2963 67.3763 26.2066L66.1947 25.8085C66.3056 19.2771 66.6637 12.7025 67.2762 6.08374C67.3055 5.76856 67.5607 5.51897 67.883 5.48982L72.0756 5.11406C72.2689 5.09675 72.4603 5.16234 72.6009 5.29351C72.7411 5.42468 72.8161 5.60915 72.8068 5.79907C72.58 10.4111 72.4258 15.0063 72.3448 19.5841L70.2485 21.6556C69.4889 22.4062 69.562 23.5512 70.418 24.2107L71.2061 24.8178C71.5181 25.0579 71.8958 25.1913 72.2814 25.2223Z" fill="#FBFCFE"/>
<path fill-rule="evenodd" clip-rule="evenodd" d="M92.4709 27.1394C92.953 27.164 93.4425 27.0301 93.8272 26.7318L94.6068 26.1269C95.454 25.4702 95.5215 24.3247 94.7526 23.5704L92.6349 21.4931C92.6684 16.1437 92.3918 10.8179 92.1282 5.65934C92.1193 5.48353 92.1831 5.31137 92.3051 5.18202C92.4272 5.05267 92.5971 4.9766 92.7774 4.97114L95.8759 4.87686C96.2299 4.86593 96.5317 5.12645 96.5648 5.47169C97.4855 15.1234 98.4384 25.093 99.5879 35.0249C99.7597 36.5006 98.9195 37.9116 97.5223 38.4932C95.2835 39.4256 92.0797 40.7592 90.825 41.2788C90.5111 41.4096 90.1469 41.2879 89.9802 40.9965C89.147 39.5995 88.95 38.7793 88.8959 38.0769C88.855 37.5454 91.7467 34.6509 91.8203 34.1149C92.1361 31.8029 92.3438 29.4737 92.4714 27.1399L92.4709 27.1394Z" fill="#FBFCFE"/>
<path fill-rule="evenodd" clip-rule="evenodd" d="M45.5894 15.0797C46.316 14.3218 47.2102 14.1423 47.6214 14.0485C47.9796 13.967 48.5455 14.074 48.9008 14.2102C49.0964 14.2854 49.2334 14.3792 49.2879 14.4448L49.3428 14.534L49.367 14.627L49.3619 14.7222L49.327 14.8137L49.2851 14.8711L49.2175 14.928L49.0755 14.9863C48.9833 15.0082 48.8468 15.1266 48.749 15.261C48.6931 15.3379 48.6358 15.424 48.654 15.5046C48.8445 15.5775 49.2511 15.7406 49.5342 15.9064C49.6781 15.9911 49.7932 16.0803 49.8584 16.1596L49.9254 16.2639L49.9571 16.36C49.9757 16.4566 49.9431 16.6196 49.8216 16.7991C49.6549 17.0455 49.3116 17.3884 49.0685 17.6184C49.2874 17.7674 49.5808 17.9764 49.8048 18.1691C50.0349 18.3668 50.1853 18.5694 50.2133 18.6933C50.2491 18.8555 50.1681 19.0818 49.9222 19.2854C49.5761 19.5715 48.8803 19.8857 48.3475 20.0196C47.24 20.297 44.3296 20.4951 43.0884 18.1254C43.0218 17.9978 43.0619 17.8416 43.1825 17.7601C44.1918 17.0778 44.4568 16.6775 44.7288 16.232C44.929 15.9041 45.1344 15.5557 45.5904 15.0797H45.5894ZM44.5127 17.8817C44.5033 18.2493 44.7069 18.6018 45.7608 18.6769C46.8763 18.7566 47.5572 17.7961 47.5036 17.5765C47.4505 17.357 46.3081 17.5916 46.1045 17.4909C45.901 17.3903 46.2899 16.5645 46.0244 16.6296C45.759 16.6948 44.5206 17.5497 44.5122 17.8812L44.5127 17.8817Z" fill="#FBFCFE"/>
<path fill-rule="evenodd" clip-rule="evenodd" d="M60.112 11.1281C59.874 11.0817 59.6328 11.1901 59.514 11.3973C58.9365 12.408 57.2603 15.3421 56.6427 16.4229C56.5091 16.657 56.5687 16.9512 56.7839 17.1179C57.1732 17.4195 57.7875 17.895 58.2272 18.2356C58.3581 18.3368 58.5281 18.3759 58.6911 18.3418C58.8541 18.3076 58.9933 18.2042 59.0702 18.0594C59.4665 17.3133 60.0999 16.1214 60.0999 16.1214C60.0999 16.1214 62.2814 16.5668 63.3629 16.7873C63.5156 16.8182 63.6749 16.7859 63.8016 16.6971C63.9287 16.6083 64.0121 16.4721 64.0317 16.3204C64.1043 15.7584 64.2124 14.9185 64.2822 14.3774C64.32 14.0836 64.1122 13.814 63.8128 13.7689C62.905 13.6323 61.1664 13.3704 61.1664 13.3704C61.1664 13.3704 61.445 12.6284 61.6532 12.0728C61.7095 11.9229 61.696 11.7567 61.6159 11.6173C61.5362 11.4779 61.3984 11.38 61.2382 11.3486C60.8735 11.2771 60.4273 11.1901 60.112 11.1281Z" fill="#FBFCFE"/>
<path fill-rule="evenodd" clip-rule="evenodd" d="M125.442 15.2692C135.344 17.4663 136.626 25.354 135.486 29.7547C134.504 33.5428 129.263 43.5138 119.032 40.1425C109.016 36.8417 110.535 28.7654 111.804 24.6303C113.115 20.3562 116.991 13.394 125.442 15.2692ZM119.564 27.5484L116.64 30.1254C116.365 30.3678 116.343 30.7827 116.592 31.0519L118.906 33.5628C119.154 33.832 119.578 33.8534 119.853 33.6107L122.776 31.0336C122.909 30.917 123.082 30.8569 123.26 30.866C123.438 30.8751 123.605 30.9526 123.724 31.0819L126.331 33.9103C126.45 34.0397 126.617 34.1171 126.794 34.1262C126.972 34.1353 127.146 34.0748 127.278 33.9586L129.661 31.8576C129.794 31.741 129.873 31.5779 129.882 31.4044C129.892 31.2309 129.83 31.0605 129.711 30.9312L127.104 28.1027C126.984 27.9734 126.923 27.8035 126.932 27.6295C126.942 27.456 127.021 27.2929 127.153 27.1763L130.076 24.5993C130.352 24.357 130.374 23.9421 130.125 23.6729L127.811 21.1619C127.563 20.8928 127.139 20.8714 126.864 21.1141L123.94 23.6911C123.808 23.8077 123.634 23.8678 123.456 23.8587C123.279 23.8496 123.112 23.7722 122.993 23.6428L120.386 20.8144C120.267 20.6851 120.1 20.6076 119.922 20.5985C119.745 20.5894 119.571 20.65 119.439 20.7661L117.055 22.8672C116.923 22.9838 116.844 23.1468 116.835 23.3204C116.825 23.4939 116.887 23.6642 117.006 23.7936L119.613 26.622C119.732 26.7514 119.794 26.9213 119.785 27.0953C119.775 27.2688 119.696 27.4318 119.564 27.5484Z" fill="#FBFCFE"/>
<path fill-rule="evenodd" clip-rule="evenodd" d="M81.2797 17.3984C80.494 17.996 79.7879 18.5289 79.2295 18.9493L79.7055 19.3155C79.8145 19.3997 79.8979 19.5004 79.9561 19.6088L80.0283 19.7864L80.0604 19.9745L80.0511 20.1644L80.0008 20.3484C79.9561 20.4623 79.8867 20.5712 79.7893 20.6673L79.3301 21.1209C78.9817 21.4652 78.3842 21.5008 77.9977 21.2029L77.1076 20.5174L73.4008 24.1803C72.9435 24.6321 72.154 24.6767 71.6385 24.28L70.8505 23.6729C70.3354 23.2762 70.2878 22.587 70.7452 22.1352L74.452 18.4724L73.6761 17.8748C73.5671 17.7906 73.4837 17.6899 73.4255 17.5815L73.3533 17.4039L73.3212 17.2158L73.3305 17.0258L73.3808 16.8418C73.4255 16.728 73.4949 16.6191 73.5922 16.523L74.0515 16.0694C74.3998 15.725 74.9974 15.6895 75.3839 15.9874L76.1524 16.5795L78.2133 14.5768C79.1867 15.4886 80.2527 16.4661 81.2792 17.398L81.2797 17.3984ZM82.4832 10.428L89.4371 3.67029C89.5973 3.51452 89.8297 3.45349 90.0486 3.50906C90.267 3.56508 90.4393 3.72996 90.5008 3.9422C90.5008 3.9422 91.1431 6.1717 91.0341 8.00493C90.9796 8.91905 90.7253 9.73524 90.22 10.2399C89.4911 10.9673 87.7218 12.4056 85.7456 13.956L82.4832 10.428Z" fill="#FBFCFE"/>
<path fill-rule="evenodd" clip-rule="evenodd" d="M85.9616 20.6678C83.762 18.7198 76.9561 12.6539 75.3889 10.7993C74.803 10.1061 74.5911 8.96242 74.5986 7.82695C74.6088 6.28703 74.9791 4.78536 74.9791 4.78536C75.0345 4.56037 75.2129 4.3841 75.442 4.32717C75.6712 4.27024 75.9138 4.34174 76.0726 4.51345L88.9018 18.3878L89.5455 17.8886C89.9325 17.5884 90.5314 17.6221 90.8821 17.966L91.3469 18.4219C91.4447 18.518 91.5151 18.6269 91.5602 18.7408L91.6115 18.9252L91.6217 19.1156L91.5905 19.3042L91.5188 19.4827C91.4606 19.5916 91.3777 19.6931 91.2687 19.7778L90.5058 20.3695L94.2601 24.0524C94.7226 24.5065 94.6844 25.1956 94.1749 25.5914L93.3952 26.1962C92.8853 26.5916 92.0958 26.5442 91.6334 26.0901L87.8791 22.4072L87.0025 23.0872C86.6155 23.3874 86.0166 23.3537 85.6659 23.0098L85.2011 22.5539C85.1033 22.4578 85.0329 22.3489 84.9878 22.2351L84.9365 22.0506L84.9263 21.8602L84.9575 21.6717L85.0292 21.4931C85.0874 21.3843 85.1703 21.2827 85.2793 21.198L85.963 20.6678H85.9616Z" fill="#FBFCFE"/>
<path fill-rule="evenodd" clip-rule="evenodd" d="M98.1262 2.79853C98.1262 2.79853 100.402 29.1785 100.82 34.0292C100.836 34.22 100.937 34.394 101.096 34.5061C101.255 34.6181 101.455 34.6568 101.645 34.6117C102.831 34.3321 105.096 33.7978 106.165 33.5459C106.498 33.4676 106.718 33.1561 106.673 32.8236C106.15 28.9034 103.175 6.58297 103.175 6.58297L105.096 6.00499L105.462 13.5588C106.46 13.2874 107.356 13.1066 107.949 13.7688C108.583 14.4775 106.984 17.5642 106.54 21.7663C106.52 21.9649 106.594 22.1616 106.74 22.3005C106.886 22.4395 107.089 22.506 107.292 22.4809C108.351 22.3497 110.149 22.1257 110.929 22.0282C111.167 21.9986 111.37 21.8474 111.463 21.6315C114.048 15.536 113.469 7.97988 107.882 10.2185C110.502 8.45948 111.376 4.35029 109.989 0.436044C109.873 0.116764 109.527 -0.0635997 109.192 0.0206609C106.835 0.610941 98.1267 2.79808 98.1267 2.79808L98.1262 2.79853Z" fill="#FBFCFE"/>
<path fill-rule="evenodd" clip-rule="evenodd" d="M116.842 6.05606C116.934 5.76593 117.219 5.576 117.529 5.59741C120.154 5.77686 131.777 6.57027 134.711 6.77068C134.89 6.78298 135.055 6.86405 135.172 6.99659C135.289 7.12913 135.347 7.30129 135.333 7.47574C135.258 8.41171 135.123 10.1156 135.049 11.0452C135.021 11.4036 134.702 11.6733 134.335 11.6487C131.402 11.4537 119.585 10.6694 116.304 10.4513C116.099 10.4376 115.912 10.3329 115.796 10.1675C115.68 10.0017 115.648 9.79313 115.71 9.60138C116.03 8.59572 116.574 6.8932 116.842 6.05606Z" fill="#FBFCFE"/>
<path fill-rule="evenodd" clip-rule="evenodd" d="M99.0669 40.8489C99.1838 40.5619 99.4893 40.3939 99.8004 40.4444C103.712 41.0839 127.925 45.0405 131.974 45.7023C132.303 45.756 132.542 46.0384 132.534 46.365C132.511 47.2818 132.467 49.0809 132.443 50.0515C132.439 50.2255 132.364 50.3908 132.235 50.5111C132.106 50.6313 131.933 50.696 131.756 50.6914C127.271 50.5753 101.702 49.913 96.4038 49.7759C96.1844 49.7705 95.9823 49.6603 95.8617 49.4813C95.7411 49.3023 95.7173 49.0768 95.7988 48.8778C96.5859 46.9452 98.453 42.3592 99.0678 40.8493L99.0669 40.8489Z" fill="#FBFCFE"/>
</svg>
