<svg width="38" height="27" viewBox="0 0 38 27" fill="none" xmlns="http://www.w3.org/2000/svg">
<path d="M35.7673 5.25679C35.5783 4.52004 35.1935 3.845 34.6516 3.29985C34.1097 2.75471 33.43 2.35876 32.6811 2.15201C29.9449 1.5 19 1.5 19 1.5C19 1.5 8.05511 1.5 5.31889 2.2141C4.57001 2.42086 3.89029 2.8168 3.34841 3.36195C2.80653 3.9071 2.42166 4.58214 2.23269 5.31889C1.73192 8.02868 1.48697 10.7776 1.50091 13.531C1.48306 16.3052 1.72803 19.0751 2.23269 21.8053C2.44102 22.5192 2.83451 23.1685 3.37513 23.6907C3.91575 24.2128 4.58524 24.59 5.31889 24.7859C8.05511 25.5 19 25.5 19 25.5C19 25.5 29.9449 25.5 32.6811 24.7859C33.43 24.5791 34.1097 24.1832 34.6516 23.638C35.1935 23.0929 35.5783 22.4179 35.7673 21.6811C36.2642 18.9917 36.5092 16.2638 36.4991 13.531C36.5169 10.7569 36.272 7.98698 35.7673 5.25679V5.25679Z" stroke="#A7B2CC" stroke-width="3" stroke-linecap="round" stroke-linejoin="round"/>
<path d="M15.5 19.5L24.5 14L15.5 8.5V19.5Z" stroke="#A7B2CC" stroke-width="3" stroke-linecap="round" stroke-linejoin="round"/>
</svg>
